<svg width="100" height="100" viewBox="0 0 100 100" fill="none" xmlns="http://www.w3.org/2000/svg" xmlns:xlink="http://www.w3.org/1999/xlink">
<path d="M50,100C77.614,100 100,77.614 100,50C100,22.386 77.614,0 50,0C22.386,0 0,22.386 0,50C0,77.614 22.386,100 50,100ZM79.983,50C79.743,57.158 77.828,63.198 74.633,67.94C69.66,77.652 58.007,91.669 36.182,93.909C41.984,90.496 47.027,85.771 50.82,79.997C50.65,79.999 50.48,80 50.309,80C33.57,80 20,66.569 20,50C20,33.431 33.57,20 50.309,20C67.048,20 80.54,33.441 79.983,50Z" clip-rule="evenodd" fill-rule="evenodd" fill="#0F0F0F" stroke="url(#ps_0_0_14)" stroke-width="1" stroke-miterlimit="3.999327"/>
</svg>
