<svg width="21" height="20" viewBox="0 0 21 20" fill="none" xmlns="http://www.w3.org/2000/svg">
<path d="M2.1 20C1.5225 20 1.0283 19.794 0.6174 19.3821C0.2058 18.9695 0 18.4737 0 17.8947V6.31579C0 5.73684 0.2058 5.2414 0.6174 4.82947C1.0283 4.41684 1.5225 4.21053 2.1 4.21053H5.25V2.10526C5.25 1.52632 5.4558 1.03053 5.8674 0.617895C6.2783 0.205965 6.7725 0 7.35 0H13.65C14.2275 0 14.722 0.205965 15.1336 0.617895C15.5445 1.03053 15.75 1.52632 15.75 2.10526V4.21053H18.9C19.4775 4.21053 19.972 4.41684 20.3836 4.82947C20.7945 5.2414 21 5.73684 21 6.31579V17.8947C21 18.4737 20.7945 18.9695 20.3836 19.3821C19.972 19.794 19.4775 20 18.9 20H2.1ZM2.1 15.7895H18.9V12.6316H2.1V15.7895ZM7.35 4.21053H13.65V2.10526H7.35V4.21053Z" fill="black"/>
</svg>
