<svg width="128" height="128" viewBox="0 0 128 128" fill="none" xmlns="http://www.w3.org/2000/svg">
<path d="M63.6001 118.8C35.7001 118.8 5.6001 101.3 5.6001 62.9C5.6001 24.5 35.7001 7 63.6001 7C79.1001 7 93.4001 12.1 104 21.4C115.5 31.6 121.6 46 121.6 62.9C121.6 79.8 115.5 94.1 104 104.3C93.4001 113.6 79.0001 118.8 63.6001 118.8Z" fill="url(#paint0_radial_802_29)"/>
<path d="M72.8601 84.93C74.5701 83.42 75.6401 81.33 75.8601 79.06C76.0501 75.46 75.1301 74.22 73.9501 72.65C71.2401 69 63.5501 69.87 63.5501 69.87C61.5501 69.95 59.1101 70.93 59.4001 73.31C59.7901 74.66 60.8901 75.69 62.2701 76C65.2701 76.73 69.6401 76 69.7601 79.09C69.9001 82.55 64.5801 81.09 64.1601 84.79C63.7401 88.49 69.7601 87.98 69.7601 90.5C69.7601 92.43 67.7601 92.76 65.6901 93.2C63.9001 93.57 60.4601 94.13 60.1801 96.2C59.9001 98.27 61.0901 100.77 65.9301 100.04C73.5401 98.89 76.1001 94.72 76.1001 92.16C76.1501 89.39 74.9601 86.74 72.8601 84.93Z" fill="#422B0D"/>
<path d="M44 40.9395C39.81 40.9395 36 44.4795 36 50.3595C36 56.2395 39.81 59.7695 44 59.7695C48.2 59.7695 52 56.2295 52 50.3595C52 44.4895 48.24 40.9395 44 40.9395Z" fill="#422B0D"/>
<path d="M43.65 44.8701C42.23 44.1901 40.52 44.7901 39.83 46.2101C39.3 47.3201 39.54 48.6501 40.43 49.5101C41.85 50.1901 43.56 49.5901 44.25 48.1701C44.78 47.0601 44.54 45.7301 43.65 44.8701Z" fill="#896024"/>
<path d="M82.3999 40.9395C78.2099 40.9395 74.3999 44.4795 74.3999 50.3595C74.3999 56.2395 78.2099 59.7695 82.3999 59.7695C86.5899 59.7695 90.3999 56.2295 90.3999 50.3595C90.3999 44.4895 86.5899 40.9395 82.3999 40.9395Z" fill="#422B0D"/>
<path d="M82.0001 44.8701C80.5801 44.1901 78.8701 44.7901 78.1801 46.2101C77.6501 47.3201 77.8901 48.6501 78.7801 49.5101C80.2001 50.1901 81.9101 49.5901 82.6001 48.1701C83.1301 47.0601 82.8901 45.7301 82.0001 44.8701Z" fill="#896024"/>
<path d="M111.49 29.6699C116.82 38.2699 119.6 48.5099 119.6 59.8999C119.6 76.7999 113.5 91.0999 102 101.3C91.3999 110.6 76.9999 115.8 61.5999 115.8C43.5399 115.8 24.5999 108.45 13.4199 92.8599C24.1799 110.52 44.4199 118.8 63.5999 118.8C78.9999 118.8 93.3999 113.6 104 104.3C115.5 94.0999 121.6 79.7999 121.6 62.8999C121.6 50.1599 118.13 38.8399 111.49 29.6699Z" fill="#EB8F00"/>
<defs>
<radialGradient id="paint0_radial_802_29" cx="0" cy="0" r="1" gradientUnits="userSpaceOnUse" gradientTransform="translate(63.6001 62.9) scale(56.9597 56.9597)">
<stop offset="0.5" stop-color="#FDE030"/>
<stop offset="0.92" stop-color="#F7C02B"/>
<stop offset="1" stop-color="#F4A223"/>
</radialGradient>
</defs>
</svg>
