<svg width="128" height="128" viewBox="0 0 128 128" fill="none" xmlns="http://www.w3.org/2000/svg">
<path d="M63.6001 118.8C35.7001 118.8 5.6001 101.3 5.6001 62.9C5.6001 24.5 35.7001 7 63.6001 7C79.1001 7 93.4001 12.1 104 21.4C115.5 31.6 121.6 46 121.6 62.9C121.6 79.8 115.5 94.1 104 104.3C93.4001 113.6 79.0001 118.8 63.6001 118.8Z" fill="url(#paint0_radial_802_41)"/>
<path d="M111.49 29.6699C116.82 38.2699 119.6 48.5099 119.6 59.8999C119.6 76.7999 113.5 91.0999 102 101.3C91.3999 110.6 76.9999 115.8 61.5999 115.8C43.5399 115.8 24.5999 108.45 13.4199 92.8599C24.1799 110.52 44.4199 118.8 63.5999 118.8C78.9999 118.8 93.3999 113.6 104 104.3C115.5 94.0999 121.6 79.7999 121.6 62.8999C121.6 50.1599 118.13 38.8399 111.49 29.6699Z" fill="#EB8F00"/>
<path d="M120.39 82.0797C119.28 76.5597 113.9 72.9797 108.37 74.0997C107.55 74.2697 106.75 74.5297 106 74.8897C106.35 69.2797 102.09 64.4397 96.4801 64.0897C92.9101 63.8697 89.4901 65.5297 87.4601 68.4697C83.8101 73.9297 84.7801 81.7097 86.4601 87.8297C87.4601 91.4397 86.2301 95.3097 83.3301 97.6797C103.61 101.57 113.56 97.7797 118.88 89.6797C120.38 87.4497 120.92 84.7097 120.39 82.0797Z" fill="#E53935"/>
<path d="M98.09 100.78C96.95 100.78 87.18 99.8699 83.25 97.6699C83.4 97.4399 89.25 97.6099 97.86 97.7499C100.79 97.8099 103.71 97.4999 106.55 96.8099C110.55 95.8099 114.31 93.8099 116.55 90.2799C117.85 88.2799 119.2 85.5399 118.95 83.1299C118.49 80.0199 117.04 77.1399 114.82 74.9199C116.53 75.4399 118.07 76.3999 119.29 77.6999C122.57 81.6399 122.09 87.2799 119.06 91.9199C115.25 97.8399 108.32 100.78 98.09 100.78Z" fill="#C62828"/>
<path d="M90.56 67.6302C91.74 66.5802 93.22 65.9102 94.8 65.7402C96.42 65.6202 98.3 66.4302 98.64 68.0202C98.77 69.1202 98.41 70.2202 97.64 71.0202C96.91 71.8702 96.01 72.5402 95.32 73.4102C93.45 75.7502 93.38 79.0402 91.97 81.6802C91.47 82.6102 90.46 83.5502 89.5 83.1202C89.2 82.9702 88.95 82.7502 88.76 82.4802C85.38 78.3602 86.6 71.0002 90.56 67.6302Z" fill="#EF5350"/>
<path d="M104.73 79.0995C104.36 79.3595 103.91 79.4695 103.46 79.4095C103 79.3095 102.62 78.9795 102.46 78.5395C102.29 78.0595 102.42 77.5295 102.79 77.1895C103.15 76.7395 103.4 76.2195 103.54 75.6695C103.84 74.5195 103.92 73.3295 103.79 72.1495C103.64 70.2595 102.27 67.4995 101.49 65.7695C103.25 66.8595 104.66 68.4395 105.55 70.3095C106.17 71.8695 106.46 73.5295 106.42 75.2095C106.5 76.6395 105.94 78.0295 104.89 79.0095L104.73 79.0995Z" fill="#C62828"/>
<path d="M97.4301 55.4304L97.2401 55.1604C97.0601 54.9004 96.8601 54.6504 96.6501 54.4104C95.9401 53.5904 95.1201 52.8604 94.2301 52.2404C93.0301 51.4004 91.7301 50.7104 90.3601 50.1904C89.6101 49.9004 88.8401 49.6504 88.0601 49.4604C87.6701 49.3604 87.2401 49.2604 86.8101 49.1804L86.2101 49.0704C86.4001 48.9604 86.5901 48.8504 86.7901 48.7504L88.5401 47.8304C89.6801 47.2504 90.7401 46.7504 91.6401 46.3404C92.5401 45.9304 93.2801 45.6504 93.7801 45.4604L94.5401 45.1804L94.7601 45.1003C96.1901 44.5803 96.9301 42.9904 96.4001 41.5604C96.0101 40.5104 95.0301 39.7904 93.9101 39.7504C93.4901 39.7304 93.0801 39.7304 92.6601 39.7504C91.6501 39.8404 90.6401 40.0103 89.6601 40.2603C88.3201 40.5903 87.0101 41.0304 85.7301 41.5604C85.0501 41.8504 84.3301 42.1404 83.6401 42.4904C82.9501 42.8404 82.2001 43.2304 81.5801 43.5704C80.9601 43.9104 80.2101 44.3804 79.5801 44.8104C78.9501 45.2404 78.3001 45.6904 77.7001 46.1304C76.5901 46.9504 75.5501 47.8604 74.5701 48.8304C73.8401 49.5504 73.1701 50.3304 72.5701 51.1704C72.3601 51.4304 72.1601 51.7104 72.0001 52.0004L71.8601 52.2304C71.4901 52.8804 71.4001 53.6504 71.6101 54.3704C71.6401 54.6104 71.7001 54.8404 71.7801 55.0604C72.3501 56.4704 73.9601 57.1604 75.3801 56.5904L75.6301 56.4904L75.9201 56.3703L76.1601 56.3204L76.9601 56.1203C77.2801 56.0403 77.6701 55.9804 78.0901 55.9104C79.0801 55.7704 80.0901 55.6904 81.0901 55.6904C82.2801 55.6904 83.4601 55.7803 84.6401 55.9403C84.8401 55.9403 85.3701 56.0404 85.5801 56.0904L86.4201 56.2603C87.0101 56.3903 87.5801 56.5104 88.1101 56.6804C89.0701 56.9404 90.0201 57.2804 90.9301 57.6804C91.5401 57.9504 92.1201 58.2703 92.6901 58.6203C93.0901 58.8603 93.2901 59.0004 93.2901 59.0004L93.5701 59.2104C94.7801 60.1104 96.4901 59.8504 97.3901 58.6404C98.1001 57.6804 98.1101 56.3804 97.4101 55.4204L97.4301 55.4304Z" fill="#422B0D"/>
<path d="M72.8601 84.93C74.5701 83.42 75.6401 81.33 75.8601 79.06C76.0501 75.46 75.1301 74.22 73.9501 72.65C71.2401 69 63.5501 69.87 63.5501 69.87C61.5501 69.95 59.1101 70.93 59.4001 73.31C59.7901 74.66 60.8901 75.69 62.2701 76C65.2701 76.73 69.6401 76 69.7601 79.09C69.9001 82.55 64.5801 81.09 64.1601 84.79C63.7401 88.49 69.7601 87.98 69.7601 90.5C69.7601 92.43 67.7601 92.76 65.6901 93.2C63.9001 93.57 60.4601 94.13 60.1801 96.2C59.9001 98.27 61.0901 100.77 65.9301 100.04C73.5401 98.89 76.1001 94.72 76.1001 92.16C76.1501 89.39 74.9601 86.74 72.8601 84.93Z" fill="#422B0D"/>
<path d="M43.4001 31.0601C45.6101 30.3901 45.2901 27.1701 42.8001 27.4201C40.8601 27.6501 38.9701 28.1801 37.2001 29.0001C32.3601 31.1601 28.5401 35.1001 26.5201 40.0001C25.6201 42.3001 28.6601 43.4501 29.8501 41.5701C33.0601 36.6501 37.8301 32.9401 43.4001 31.0601Z" fill="#422B0D"/>
<path d="M43.6699 40.9404C39.4799 40.9404 35.6699 44.4804 35.6699 50.3604C35.6699 56.2404 39.4799 59.7704 43.6699 59.7704C47.8599 59.7704 51.6699 56.2304 51.6699 50.3604C51.6699 44.4904 47.8599 40.9404 43.6699 40.9404Z" fill="#422B0D"/>
<path d="M43.2803 44.8701C41.8603 44.1901 40.1503 44.7901 39.4603 46.2101C38.9303 47.3201 39.1703 48.6501 40.0603 49.5101C41.4803 50.1901 43.1903 49.5901 43.8803 48.1701C44.4103 47.0601 44.1703 45.7301 43.2803 44.8701Z" fill="#896024"/>
<defs>
<radialGradient id="paint0_radial_802_41" cx="0" cy="0" r="1" gradientUnits="userSpaceOnUse" gradientTransform="translate(63.6001 62.9) scale(56.9597 56.9597)">
<stop offset="0.5" stop-color="#FDE030"/>
<stop offset="0.92" stop-color="#F7C02B"/>
<stop offset="1" stop-color="#F4A223"/>
</radialGradient>
</defs>
</svg>
