<svg width="128" height="128" viewBox="0 0 128 128" fill="none" xmlns="http://www.w3.org/2000/svg">
<path d="M63.2202 118.8C35.3202 118.8 5.22021 101.3 5.22021 62.9C5.22021 24.5 35.3202 7 63.2202 7C78.7202 7 93.0202 12.1 103.62 21.4C115.12 31.6 121.22 46 121.22 62.9C121.22 79.8 115.12 94.1 103.62 104.3C93.0002 113.6 78.6202 118.8 63.2202 118.8Z" fill="url(#paint0_radial_802_15)"/>
<path d="M44 40.9404C39.81 40.9404 36 44.4804 36 50.3604C36 56.2404 39.81 59.7704 44 59.7704C48.2 59.7704 52 56.2304 52 50.3604C52 44.4904 48.24 40.9404 44 40.9404Z" fill="#422B0D"/>
<path d="M43.65 44.8701C42.23 44.1901 40.52 44.7901 39.83 46.2101C39.3 47.3201 39.54 48.6501 40.43 49.5101C41.85 50.1901 43.56 49.5901 44.25 48.1701C44.78 47.0601 44.54 45.7301 43.65 44.8701Z" fill="#896024"/>
<path d="M82.4004 40.9404C78.2104 40.9404 74.4004 44.4804 74.4004 50.3604C74.4004 56.2404 78.2104 59.7704 82.4004 59.7704C86.5904 59.7704 90.4004 56.2304 90.4004 50.3604C90.4004 44.4904 86.5904 40.9404 82.4004 40.9404Z" fill="#422B0D"/>
<path d="M82.0001 44.8701C80.5801 44.1901 78.8701 44.7901 78.1801 46.2101C77.6501 47.3201 77.8901 48.6501 78.7801 49.5101C80.2001 50.1901 81.9101 49.5901 82.6001 48.1701C83.1301 47.0601 82.8901 45.7301 82.0001 44.8701Z" fill="#896024"/>
<path d="M111.49 29.6699C116.82 38.2699 119.6 48.5099 119.6 59.8999C119.6 76.7999 113.5 91.0999 102 101.3C91.4004 110.6 77.0004 115.8 61.6004 115.8C43.5404 115.8 24.6004 108.45 13.4204 92.8599C24.1804 110.52 44.4204 118.8 63.6004 118.8C79.0004 118.8 93.4004 113.6 104 104.3C115.5 94.0999 121.6 79.7999 121.6 62.8999C121.6 50.1599 118.13 38.8399 111.49 29.6699Z" fill="#EB8F00"/>
<path d="M102.07 71.6195C100.67 69.0895 97.6301 67.9795 94.9301 68.9995C84.6701 71.9895 74.0301 73.4795 63.3401 73.4295C52.6501 73.4795 42.0101 71.9895 31.7501 68.9995C29.0601 67.9795 26.0201 69.0795 24.6201 71.5995C23.2601 74.1095 24.2401 77.0195 25.3901 79.5295C31.8101 93.6295 45.9601 102.07 63.2601 102.12H63.4201C80.7201 102.12 94.8701 93.6295 101.3 79.5295C102.44 76.9995 103.43 74.1295 102.07 71.6195Z" fill="#422B0D"/>
<path d="M79.35 98.14C78.98 97.8 78.6 97.49 78.22 97.14C74.14 93.55 68.86 91.62 63.42 91.73C57.82 91.64 52.37 93.5 48 97C47.62 97.31 47.22 97.61 46.85 98C46.48 98.39 46.28 98.67 46.04 99C51.54 101.15 57.4 102.25 63.31 102.22H63.47C69.13 102.22 74.74 101.21 80.04 99.22C79.84 98.84 79.61 98.48 79.35 98.14Z" fill="#ED7770"/>
<path d="M94.9302 68.9999C84.6702 71.9899 74.0302 73.4799 63.3402 73.4299C52.6502 73.4799 42.0102 71.9899 31.7502 68.9999C29.0602 67.9799 26.0202 69.0799 24.6202 71.5999C24.4202 71.9799 24.2602 72.3799 24.1602 72.7899C24.4902 72.9599 24.8702 73.1299 25.3202 73.3099C37.3602 79.3399 50.6702 82.3999 64.1302 82.2399C77.0402 82.3899 89.8002 79.5799 101.46 74.0399C101.93 73.8399 102.32 73.6499 102.67 73.4699C102.59 72.8199 102.38 72.1799 102.07 71.5999C100.67 69.0799 97.6302 67.9699 94.9302 68.9999Z" fill="white"/>
<path d="M102.11 71.6295C100.69 69.0995 97.6401 67.9795 94.9201 68.9995C84.6601 71.9895 74.0201 73.4795 63.3401 73.4295C52.6501 73.4795 42.0101 71.9895 31.7501 68.9995C29.0601 67.9795 26.0201 69.0795 24.6201 71.5995C23.2601 74.1095 24.2401 77.0195 25.3901 79.5295C25.9001 80.6595 26.4701 81.7695 27.1001 82.8395C27.1001 82.8395 25.0001 75.0595 26.8201 72.7995C27.4401 71.8395 28.4801 71.2395 29.6201 71.1795C30.0901 71.1795 30.5501 71.2595 31.0001 71.3995C41.4401 74.4695 52.2701 76.0195 63.1601 75.9995H63.5101C74.4001 76.0195 85.2301 74.4695 95.6701 71.3995C96.1201 71.2595 96.5801 71.1795 97.0501 71.1795C98.1901 71.2395 99.2401 71.8395 99.8601 72.7995C101.71 75.0595 99.5801 82.8695 99.5801 82.8695C100.2 81.7995 100.82 80.6995 101.34 79.5595C102.48 77.0495 103.47 74.1495 102.11 71.6295Z" fill="#EB8F00"/>
<defs>
<radialGradient id="paint0_radial_802_15" cx="0" cy="0" r="1" gradientUnits="userSpaceOnUse" gradientTransform="translate(63.2202 62.9) scale(56.9597 56.9597)">
<stop offset="0.5" stop-color="#FDE030"/>
<stop offset="0.92" stop-color="#F7C02B"/>
<stop offset="1" stop-color="#F4A223"/>
</radialGradient>
</defs>
</svg>
