<svg width="24" height="23" viewBox="0 0 24 23" fill="none" xmlns="http://www.w3.org/2000/svg">
<path d="M8.78471 4.5504C10.1041 2.18347 10.7638 1 11.7502 1C12.7365 1 13.3962 2.18346 14.7156 4.55039L15.0569 5.16274C15.4319 5.83534 15.6193 6.17166 15.9117 6.39355C16.204 6.61545 16.568 6.69781 17.2961 6.86255L17.959 7.01253C20.5211 7.59225 21.8022 7.8821 22.107 8.86222C22.4118 9.84229 21.5385 10.8636 19.7917 12.9061L19.3399 13.4346C18.8435 14.015 18.5953 14.3052 18.4836 14.6643C18.372 15.0233 18.4095 15.4105 18.4845 16.185L18.5529 16.89C18.8169 19.6152 18.949 20.9778 18.1511 21.5835C17.3531 22.1893 16.1536 21.637 13.7546 20.5325L13.134 20.2467C12.4524 19.9328 12.1115 19.7758 11.7502 19.7758C11.3888 19.7758 11.048 19.9328 10.3663 20.2467L9.74569 20.5325C7.34671 21.637 6.14723 22.1893 5.34928 21.5835C4.55133 20.9778 4.68337 19.6152 4.94746 16.89L5.01577 16.185C5.09082 15.4105 5.12834 15.0233 5.01669 14.6643C4.90504 14.3052 4.65686 14.015 4.1605 13.4346L3.7086 12.9061C1.96188 10.8636 1.08852 9.84229 1.39331 8.86222C1.6981 7.8821 2.97919 7.59225 5.54135 7.01253L6.20422 6.86255C6.9323 6.69781 7.29634 6.61545 7.58864 6.39355C7.88095 6.17166 8.06842 5.83535 8.44336 5.16274L8.78471 4.5504Z" stroke="#FF6B00" stroke-width="2"/>
</svg>
