<svg width="22" height="21" viewBox="0 0 22 21" fill="none" xmlns="http://www.w3.org/2000/svg">
<path d="M8.11796 3.5504C9.43738 1.18347 10.0971 0 11.0834 0C12.0698 0 12.7295 1.18346 14.0488 3.55039L14.3902 4.16274C14.7652 4.83534 14.9526 5.17166 15.245 5.39355C15.5373 5.61545 15.9012 5.69781 16.6294 5.86255L17.2923 6.01253C19.8544 6.59225 21.1355 6.8821 21.4403 7.86222C21.7451 8.84229 20.8717 9.86365 19.125 11.9061L18.6731 12.4346C18.1768 13.015 17.9285 13.3052 17.8169 13.6643C17.7053 14.0233 17.7428 14.4105 17.8178 15.185L17.8861 15.89C18.1502 18.6152 18.2823 19.9778 17.4844 20.5835C16.6863 21.1893 15.4869 20.637 13.0879 19.5325L12.4673 19.2467C11.7856 18.9328 11.4448 18.7758 11.0834 18.7758C10.7221 18.7758 10.3812 18.9328 9.69956 19.2467L9.07894 19.5325C6.67996 20.637 5.48048 21.1893 4.68253 20.5835C3.88458 19.9778 4.01662 18.6152 4.28071 15.89L4.34902 15.185C4.42407 14.4105 4.46159 14.0233 4.34994 13.6643C4.23829 13.3052 3.99011 13.015 3.49375 12.4346L3.04185 11.9061C1.29514 9.86365 0.421771 8.84229 0.726563 7.86222C1.03135 6.8821 2.31244 6.59225 4.8746 6.01253L5.53747 5.86255C6.26555 5.69781 6.62959 5.61545 6.9219 5.39355C7.2142 5.17166 7.40168 4.83535 7.77661 4.16274L8.11796 3.5504Z" fill="#FF6B00"/>
</svg>
