<svg width="21" height="21" viewBox="0 0 21 21" fill="none" xmlns="http://www.w3.org/2000/svg">
<path d="M7.45121 3.5504C8.77063 1.18347 9.43031 0 10.4167 0C11.403 0 12.0627 1.18346 13.3821 3.55039L13.7234 4.16274C14.0984 4.83534 14.2858 5.17166 14.5782 5.39355C14.8705 5.61545 15.2345 5.69781 15.9626 5.86255L16.6255 6.01253C19.1876 6.59225 20.4688 6.8821 20.7735 7.86222C21.0783 8.84229 20.205 9.86365 18.4582 11.9061L18.0064 12.4346C17.51 13.015 17.2618 13.3052 17.1501 13.6643C17.0385 14.0233 17.076 14.4105 17.151 15.185L17.2194 15.89C17.4834 18.6152 17.6155 19.9778 16.8176 20.5835C16.0196 21.1893 14.8201 20.637 12.4211 19.5325L11.8005 19.2467C11.1189 18.9328 10.778 18.7758 10.4167 18.7758C10.0553 18.7758 9.71448 18.9328 9.03281 19.2467L8.41219 19.5325C6.01321 20.637 4.81373 21.1893 4.01578 20.5835C3.21784 19.9778 3.34988 18.6152 3.61396 15.89L3.68227 15.185C3.75732 14.4105 3.79485 14.0233 3.68319 13.6643C3.57154 13.3052 3.32337 13.015 2.827 12.4346L2.37511 11.9061C0.628387 9.86365 -0.244977 8.84229 0.0598145 7.86222C0.364606 6.8821 1.64569 6.59225 4.20786 6.01253L4.87072 5.86255C5.5988 5.69781 5.96285 5.61545 6.25515 5.39355C6.54745 5.17166 6.73493 4.83535 7.10987 4.16274L7.45121 3.5504Z" fill="#FF6B00"/>
</svg>
