<svg width="22" height="21" viewBox="0 0 22 21" fill="none" xmlns="http://www.w3.org/2000/svg">
<path d="M8.28458 3.5504C9.604 1.18347 10.2637 0 11.25 0C12.2364 0 12.8961 1.18346 14.2155 3.55039L14.5568 4.16274C14.9318 4.83534 15.1192 5.17166 15.4116 5.39355C15.7039 5.61545 16.0679 5.69781 16.796 5.86255L17.4589 6.01253C20.021 6.59225 21.3021 6.8821 21.6069 7.86222C21.9117 8.84229 21.0384 9.86365 19.2916 11.9061L18.8397 12.4346C18.3434 13.015 18.0951 13.3052 17.9835 13.6643C17.8719 14.0233 17.9094 14.4105 17.9844 15.185L18.0527 15.89C18.3168 18.6152 18.4489 19.9778 17.651 20.5835C16.853 21.1893 15.6535 20.637 13.2545 19.5325L12.6339 19.2467C11.9522 18.9328 11.6114 18.7758 11.25 18.7758C10.8887 18.7758 10.5479 18.9328 9.86619 19.2467L9.24556 19.5325C6.84658 20.637 5.64711 21.1893 4.84916 20.5835C4.05121 19.9778 4.18325 18.6152 4.44733 15.89L4.51565 15.185C4.5907 14.4105 4.62822 14.0233 4.51656 13.6643C4.40492 13.3052 4.15674 13.015 3.66038 12.4346L3.20848 11.9061C1.46176 9.86365 0.588397 8.84229 0.893189 7.86222C1.19798 6.8821 2.47906 6.59225 5.04123 6.01253L5.70409 5.86255C6.43218 5.69781 6.79622 5.61545 7.08852 5.39355C7.38082 5.17166 7.5683 4.83535 7.94324 4.16274L8.28458 3.5504Z" fill="#FF6B00"/>
</svg>
