<svg width="22" height="21" viewBox="0 0 22 21" fill="none" xmlns="http://www.w3.org/2000/svg">
<path d="M7.95133 3.5504C9.27075 1.18347 9.93044 0 10.9168 0C11.9031 0 12.5628 1.18346 13.8822 3.55039L14.2236 4.16274C14.5986 4.83534 14.786 5.17166 15.0784 5.39355C15.3706 5.61545 15.7346 5.69781 16.4627 5.86255L17.1256 6.01253C19.6877 6.59225 20.9689 6.8821 21.2737 7.86222C21.5785 8.84229 20.7051 9.86365 18.9584 11.9061L18.5065 12.4346C18.0101 13.015 17.7619 13.3052 17.6502 13.6643C17.5387 14.0233 17.5762 14.4105 17.6512 15.185L17.7195 15.89C17.9836 18.6152 18.1156 19.9778 17.3177 20.5835C16.5197 21.1893 15.3202 20.637 12.9213 19.5325L12.3006 19.2467C11.619 18.9328 11.2781 18.7758 10.9168 18.7758C10.5554 18.7758 10.2146 18.9328 9.53294 19.2467L8.91231 19.5325C6.51333 20.637 5.31385 21.1893 4.51591 20.5835C3.71796 19.9778 3.85 18.6152 4.11408 15.89L4.18239 15.185C4.25745 14.4105 4.29497 14.0233 4.18331 13.6643C4.07167 13.3052 3.82349 13.015 3.32712 12.4346L2.87523 11.9061C1.12851 9.86365 0.255145 8.84229 0.559937 7.86222C0.864728 6.8821 2.14581 6.59225 4.70798 6.01253L5.37084 5.86255C6.09893 5.69781 6.46297 5.61545 6.75527 5.39355C7.04757 5.17166 7.23505 4.83535 7.60999 4.16274L7.95133 3.5504Z" fill="#FF6B00"/>
</svg>
