<svg width="18" height="27" viewBox="0 0 18 27" fill="none" xmlns="http://www.w3.org/2000/svg">
<path d="M7.71429 5.4H10.2857V2.7H7.71429V5.4ZM9 13.5C7.37143 13.5 5.81786 13.1456 4.33929 12.4369C2.86071 11.7281 1.41429 10.935 0 10.0575V8.1C0 7.3575 0.251786 6.72188 0.755357 6.19313C1.25893 5.66438 1.86429 5.4 2.57143 5.4H5.14286V1.35C5.14286 0.9675 5.26607 0.646875 5.5125 0.388125C5.75893 0.129375 6.06429 0 6.42857 0H11.5714C11.9357 0 12.2411 0.129375 12.4875 0.388125C12.7339 0.646875 12.8571 0.9675 12.8571 1.35V5.4H15.4286C16.1357 5.4 16.7411 5.66438 17.2446 6.19313C17.7482 6.72188 18 7.3575 18 8.1V10.0575C16.5857 10.935 15.1393 11.7281 13.6607 12.4369C12.1821 13.1456 10.6286 13.5 9 13.5ZM2.57143 25.65C1.86429 25.65 1.25893 25.3856 0.755357 24.8569C0.251786 24.3281 0 23.6925 0 22.95V13.095C1.2 13.86 2.4375 14.5125 3.7125 15.0525C4.9875 15.5925 6.32143 15.9525 7.71429 16.1325V16.2C7.71429 16.5825 7.8375 16.9031 8.08393 17.1619C8.33036 17.4206 8.63571 17.55 9 17.55C9.36429 17.55 9.66964 17.4206 9.91607 17.1619C10.1625 16.9031 10.2857 16.5825 10.2857 16.2V16.1325C11.6786 15.9525 13.0125 15.5925 14.2875 15.0525C15.5625 14.5125 16.8 13.86 18 13.095V22.95C18 23.6925 17.7482 24.3281 17.2446 24.8569C16.7411 25.3856 16.1357 25.65 15.4286 25.65C15.4286 26.0325 15.3054 26.3531 15.0589 26.6119C14.8125 26.8706 14.5071 27 14.1429 27C13.8 27 13.5589 26.8369 13.4196 26.5106C13.2804 26.1844 13.0929 25.8975 12.8571 25.65H5.14286C5.14286 26.0325 5.01964 26.3531 4.77321 26.6119C4.52679 26.8706 4.22143 27 3.85714 27C3.51429 27 3.27321 26.8369 3.13393 26.5106C2.99464 26.1844 2.80714 25.8975 2.57143 25.65Z" fill="black"/>
</svg>
