<svg width="22" height="26" viewBox="0 0 22 26" fill="none" xmlns="http://www.w3.org/2000/svg">
<path fill-rule="evenodd" clip-rule="evenodd" d="M13.2538 4.66666C13.2538 2.36548 15.1278 0.5 17.4394 0.5C19.751 0.5 21.625 2.36548 21.625 4.66666C21.625 6.96785 19.751 8.83334 17.4394 8.83334C16.2721 8.83334 15.2173 8.35745 14.4589 7.59184L8.66462 11.5369C8.71812 11.8031 8.74625 12.0781 8.74625 12.359C8.74625 12.9152 8.63625 13.447 8.43699 13.933L14.7904 18.1073C15.5115 17.5201 16.4341 17.1666 17.4394 17.1666C19.751 17.1666 21.625 19.0321 21.625 21.3334C21.625 23.6345 19.751 25.5 17.4394 25.5C15.1278 25.5 13.2538 23.6345 13.2538 21.3334C13.2538 20.7306 13.3827 20.1569 13.6146 19.6389L7.31259 15.4984C6.57745 16.1372 5.6145 16.5256 4.5606 16.5256C2.24896 16.5256 0.375 14.6601 0.375 12.359C0.375 10.0578 2.24896 8.19231 4.5606 8.19231C5.88988 8.19231 7.07316 8.80906 7.83931 9.76898L13.4549 5.94553C13.3242 5.54199 13.2538 5.112 13.2538 4.66666Z" fill="black"/>
</svg>
