<svg width="55" height="54" viewBox="0 0 55 54" fill="none" xmlns="http://www.w3.org/2000/svg">
<path d="M46.4666 40.0663C47.5332 38.1997 48.3333 36.0663 48.3333 33.6663C48.3333 26.9997 42.9999 21.6663 36.3333 21.6663C29.6666 21.6663 24.3333 26.9997 24.3333 33.6663C24.3333 40.333 29.6666 45.6663 36.3333 45.6663C38.7333 45.6663 40.8666 44.8663 42.7333 43.7997L51.2666 52.333L54.9999 48.5997L46.4666 40.0663ZM36.3333 40.333C32.5999 40.333 29.6666 37.3997 29.6666 33.6663C29.6666 29.933 32.5999 26.9997 36.3333 26.9997C40.0666 26.9997 42.9999 29.933 42.9999 33.6663C42.9999 37.3997 40.0666 40.333 36.3333 40.333ZM26.9999 48.333V53.6663C12.2799 53.6663 0.333252 41.7197 0.333252 26.9997C0.333252 12.2797 12.2799 0.333008 26.9999 0.333008C39.9066 0.333008 50.6533 9.50634 53.1333 21.6663H47.6133C45.9066 15.1063 41.2133 9.74634 34.9999 7.23968V8.33301C34.9999 11.2663 32.5999 13.6663 29.6666 13.6663H24.3333V18.9997C24.3333 20.4663 23.1333 21.6663 21.6666 21.6663H16.3333V26.9997H21.6666V34.9997H18.9999L6.22659 22.2263C5.87992 23.773 5.66659 25.3463 5.66659 26.9997C5.66659 38.7597 15.2399 48.333 26.9999 48.333Z" fill="black"/>
</svg>
