<svg width="21" height="20" viewBox="0 0 21 20" fill="none" xmlns="http://www.w3.org/2000/svg">
<path d="M18.9 4.21053H15.75V2.10526C15.75 0.936842 14.8155 0 13.65 0H7.35C6.1845 0 5.25 0.936842 5.25 2.10526V4.21053H2.1C0.9345 4.21053 0 5.14737 0 6.31579V17.8947C0 19.0632 0.9345 20 2.1 20H18.9C20.0655 20 21 19.0632 21 17.8947V6.31579C21 5.14737 20.0655 4.21053 18.9 4.21053ZM7.35 2.10526H13.65V4.21053H7.35V2.10526ZM18.9 17.8947H2.1V15.7895H18.9V17.8947ZM18.9 12.6316H2.1V6.31579H5.25V8.42105H7.35V6.31579H13.65V8.42105H15.75V6.31579H18.9V12.6316Z" fill="black"/>
</svg>
