<svg width="60" height="60" viewBox="0 0 60 60" fill="none" xmlns="http://www.w3.org/2000/svg">
<path fill-rule="evenodd" clip-rule="evenodd" d="M37.5 26.25C39.3845 26.2497 41.2186 25.6413 42.7297 24.5153C44.2408 23.3893 45.3483 21.8057 45.8875 20H52.5C53.163 20 53.7989 19.7366 54.2678 19.2678C54.7366 18.7989 55 18.163 55 17.5C55 16.837 54.7366 16.2011 54.2678 15.7322C53.7989 15.2634 53.163 15 52.5 15H45.8875C45.3474 13.1952 44.2396 11.6127 42.7285 10.4877C41.2175 9.36262 39.3839 8.75496 37.5 8.75496C35.6161 8.75496 33.7825 9.36262 32.2715 10.4877C30.7604 11.6127 29.6526 13.1952 29.1125 15H7.5C6.83696 15 6.20107 15.2634 5.73223 15.7322C5.26339 16.2011 5 16.837 5 17.5C5 18.163 5.26339 18.7989 5.73223 19.2678C6.20107 19.7366 6.83696 20 7.5 20H29.1125C29.6517 21.8057 30.7592 23.3893 32.2703 24.5153C33.7814 25.6413 35.6155 26.2497 37.5 26.25ZM7.5 40C6.83696 40 6.20107 40.2634 5.73223 40.7322C5.26339 41.2011 5 41.837 5 42.5C5 43.163 5.26339 43.7989 5.73223 44.2678C6.20107 44.7366 6.83696 45 7.5 45H12.8625C13.4026 46.8048 14.5104 48.3873 16.0215 49.5123C17.5325 50.6374 19.3661 51.245 21.25 51.245C23.1339 51.245 24.9675 50.6374 26.4785 49.5123C27.9896 48.3873 29.0974 46.8048 29.6375 45H52.5C53.163 45 53.7989 44.7366 54.2678 44.2678C54.7366 43.7989 55 43.163 55 42.5C55 41.837 54.7366 41.2011 54.2678 40.7322C53.7989 40.2634 53.163 40 52.5 40H29.6375C29.0974 38.1952 27.9896 36.6128 26.4785 35.4877C24.9675 34.3626 23.1339 33.755 21.25 33.755C19.3661 33.755 17.5325 34.3626 16.0215 35.4877C14.5104 36.6128 13.4026 38.1952 12.8625 40H7.5Z" fill="black"/>
</svg>
