<svg width="13" height="14" viewBox="0 0 13 14" fill="none" xmlns="http://www.w3.org/2000/svg">
<path fill-rule="evenodd" clip-rule="evenodd" d="M5.99286 0.089704C6.27894 -0.0149508 6.59062 -0.0280325 6.8831 0.0504586L7.00714 0.089704L12.0627 1.93895C12.5889 2.13142 12.9494 2.6022 12.9951 3.14162L13 3.25819V7.03607C13 9.36699 11.6896 11.5037 9.59906 12.6094L9.40687 12.707L6.98447 13.8884C6.71336 14.0207 6.39963 14.0354 6.11905 13.9325L6.01553 13.8884L3.59311 12.707C1.45578 11.6646 0.082526 9.56579 0.00359518 7.24741L0 7.03607V3.25819C0 2.71003 0.325358 2.21554 0.827102 1.98437L0.937264 1.93895L5.99286 0.089704ZM8.97932 4.62212L5.65847 7.86136L4.38177 6.61599C4.09972 6.3409 3.64244 6.3409 3.36039 6.61599C3.07835 6.89109 3.07835 7.33716 3.36039 7.61226L5.09672 9.30595C5.40699 9.6086 5.91002 9.6086 6.22028 9.30595L10.0007 5.61839C10.2828 5.34328 10.2828 4.89723 10.0007 4.62212C9.71865 4.347 9.26142 4.347 8.97932 4.62212Z" fill="#FF6B00"/>
</svg>
