<svg width="264" height="76" viewBox="0 0 264 76" fill="none" xmlns="http://www.w3.org/2000/svg">
<mask id="path-1-inside-1_641_64" fill="white">
<path fill-rule="evenodd" clip-rule="evenodd" d="M38 76C58.9868 76 76 58.9868 76 38C76 17.0132 58.9868 0 38 0C17.0132 0 0 17.0132 0 38C0 58.9868 17.0132 76 38 76ZM60.7874 38.0001C60.6047 43.4393 59.15 48.0292 56.7217 51.6328C52.9432 59.014 44.0869 69.6681 27.499 71.3708C31.9089 68.7771 35.7411 65.1857 38.6237 60.7974C38.4944 60.7992 38.3648 60.8001 38.2349 60.8001C25.5131 60.8001 15.2 50.5922 15.2 38.0001C15.2 25.408 25.5131 15.2001 38.2349 15.2001C50.9567 15.2001 61.2101 25.4149 60.7874 38.0001Z"/>
</mask>
<path fill-rule="evenodd" clip-rule="evenodd" d="M38 76C58.9868 76 76 58.9868 76 38C76 17.0132 58.9868 0 38 0C17.0132 0 0 17.0132 0 38C0 58.9868 17.0132 76 38 76ZM60.7874 38.0001C60.6047 43.4393 59.15 48.0292 56.7217 51.6328C52.9432 59.014 44.0869 69.6681 27.499 71.3708C31.9089 68.7771 35.7411 65.1857 38.6237 60.7974C38.4944 60.7992 38.3648 60.8001 38.2349 60.8001C25.5131 60.8001 15.2 50.5922 15.2 38.0001C15.2 25.408 25.5131 15.2001 38.2349 15.2001C50.9567 15.2001 61.2101 25.4149 60.7874 38.0001Z" fill="#0F0F0F"/>
<path d="M56.7217 51.6328L55.8924 51.074L55.8589 51.1238L55.8315 51.1772L56.7217 51.6328ZM60.7874 38.0001L61.7868 38.0336L61.7868 38.0336L60.7874 38.0001ZM27.499 71.3708L26.992 70.5088L27.6011 72.3655L27.499 71.3708ZM38.6237 60.7974L39.4595 61.3465L40.4938 59.7719L38.6101 59.7975L38.6237 60.7974ZM75 38C75 58.4345 58.4345 75 38 75V77C59.5391 77 77 59.5391 77 38H75ZM38 1C58.4345 1 75 17.5655 75 38H77C77 16.4609 59.5391 -1 38 -1V1ZM1 38C1 17.5655 17.5655 1 38 1V-1C16.4609 -1 -1 16.4609 -1 38H1ZM38 75C17.5655 75 1 58.4345 1 38H-1C-1 59.5391 16.4609 77 38 77V75ZM57.551 52.1916C60.0985 48.4112 61.5987 43.6331 61.7868 38.0336L59.788 37.9665C59.6106 43.2456 58.2015 47.6473 55.8924 51.074L57.551 52.1916ZM27.6011 72.3655C44.6295 70.6177 53.7333 59.6651 57.6118 52.0885L55.8315 51.1772C52.1532 58.3628 43.5442 68.7186 27.3969 70.376L27.6011 72.3655ZM37.7879 60.2484C34.9913 64.5058 31.2726 67.9911 26.992 70.5088L28.006 72.2327C32.5451 69.563 36.4909 65.8656 39.4595 61.3465L37.7879 60.2484ZM38.2349 61.8001C38.3693 61.8001 38.5035 61.7992 38.6373 61.7973L38.6101 59.7975C38.4854 59.7992 38.3603 59.8001 38.2349 59.8001V61.8001ZM14.2 38.0001C14.2 51.1541 24.9705 61.8001 38.2349 61.8001V59.8001C26.0557 59.8001 16.2 50.0302 16.2 38.0001H14.2ZM38.2349 14.2001C24.9705 14.2001 14.2 24.8461 14.2 38.0001H16.2C16.2 25.9699 26.0557 16.2001 38.2349 16.2001V14.2001ZM61.7868 38.0336C62.2294 24.8575 51.4958 14.2001 38.2349 14.2001V16.2001C50.4175 16.2001 60.1908 25.9724 59.788 37.9665L61.7868 38.0336Z" fill="url(#paint0_linear_641_64)" mask="url(#path-1-inside-1_641_64)"/>
<path d="M109.045 57.63C100.54 57.63 93.34 51.78 93.34 40.44C93.34 29.28 100.81 22.89 109.315 22.89C113.68 22.89 117.19 24.915 119.485 27.255L115.3 32.385C113.59 30.855 111.835 29.775 109.45 29.775C105.13 29.775 101.575 33.645 101.575 40.17C101.575 46.83 104.635 50.7 109.36 50.7C112.06 50.7 114.175 49.35 115.75 47.64L119.98 52.68C117.145 55.965 113.41 57.63 109.045 57.63ZM136.414 57.63C127.279 57.63 121.069 51.06 121.069 40.08C121.069 29.1 127.279 22.89 136.414 22.89C145.549 22.89 151.759 29.145 151.759 40.08C151.759 51.06 145.549 57.63 136.414 57.63ZM136.414 50.7C140.824 50.7 143.569 46.56 143.569 40.08C143.569 33.6 140.824 29.775 136.414 29.775C132.004 29.775 129.304 33.6 129.304 40.08C129.304 46.56 132.004 50.7 136.414 50.7ZM157.975 57V23.475H166.66L171.97 37.965C172.645 39.9 173.185 42.015 173.815 44.04H174.04C174.715 42.015 175.255 39.9 175.885 37.965L181.015 23.475H189.745V57H182.41V45.525C182.41 42.195 183.04 37.2 183.49 33.915H183.265L180.475 41.925L175.975 54.165H171.565L167.02 41.925L164.32 33.915H164.14C164.545 37.2 165.175 42.195 165.175 45.525V57H157.975ZM197.438 57V23.475H206.123L211.433 37.965C212.108 39.9 212.648 42.015 213.278 44.04H213.503C214.178 42.015 214.718 39.9 215.348 37.965L220.478 23.475H229.208V57H221.873V45.525C221.873 42.195 222.503 37.2 222.953 33.915H222.728L219.938 41.925L215.438 54.165H211.028L206.483 41.925L203.783 33.915H203.603C204.008 37.2 204.638 42.195 204.638 45.525V57H197.438ZM232.671 57L243.066 23.475H252.696L263.091 57H254.631L250.446 40.26C249.546 36.93 248.691 32.925 247.791 29.505H247.611C246.801 33.015 245.901 36.93 245.046 40.26L240.861 57H232.671ZM239.736 49.305V43.095H255.936V49.305H239.736Z" fill="#090808"/>
<defs>
<linearGradient id="paint0_linear_641_64" x1="10.64" y1="11.4" x2="71.44" y2="60.8" gradientUnits="userSpaceOnUse">
<stop stop-color="#434242"/>
<stop offset="0.465" stop-color="#FFFBFB"/>
<stop offset="0.98" stop-color="#2D2C2C"/>
</linearGradient>
</defs>
</svg>
