<svg width="19" height="22" viewBox="0 0 19 22" fill="none" xmlns="http://www.w3.org/2000/svg">
<path d="M3.125 1.5625C2.7106 1.5625 2.31317 1.72712 2.02015 2.02015C1.72712 2.31317 1.5625 2.7106 1.5625 3.125V18.75C1.5625 19.1644 1.72712 19.5618 2.02015 19.8549C2.31317 20.1479 2.7106 20.3125 3.125 20.3125H15.625C16.0394 20.3125 16.4368 20.1479 16.7299 19.8549C17.0229 19.5618 17.1875 19.1644 17.1875 18.75V3.125C17.1875 2.7106 17.0229 2.31317 16.7299 2.02015C16.4368 1.72712 16.0394 1.5625 15.625 1.5625H3.125ZM3.125 0H15.625C16.4538 0 17.2487 0.32924 17.8347 0.915291C18.4208 1.50134 18.75 2.2962 18.75 3.125V18.75C18.75 19.5788 18.4208 20.3737 17.8347 20.9597C17.2487 21.5458 16.4538 21.875 15.625 21.875H3.125C2.2962 21.875 1.50134 21.5458 0.915291 20.9597C0.32924 20.3737 0 19.5788 0 18.75V3.125C0 2.2962 0.32924 1.50134 0.915291 0.915291C1.50134 0.32924 2.2962 0 3.125 0ZM6.25 3.125H12.5C12.7072 3.125 12.9059 3.20731 13.0524 3.35382C13.1989 3.50034 13.2812 3.69905 13.2812 3.90625C13.2812 4.11345 13.1989 4.31216 13.0524 4.45868C12.9059 4.60519 12.7072 4.6875 12.5 4.6875H6.25C6.0428 4.6875 5.84409 4.60519 5.69757 4.45868C5.55106 4.31216 5.46875 4.11345 5.46875 3.90625C5.46875 3.69905 5.55106 3.50034 5.69757 3.35382C5.84409 3.20731 6.0428 3.125 6.25 3.125ZM9.375 18.75C8.9606 18.75 8.56317 18.5854 8.27015 18.2924C7.97712 17.9993 7.8125 17.6019 7.8125 17.1875C7.8125 16.7731 7.97712 16.3757 8.27015 16.0826C8.56317 15.7896 8.9606 15.625 9.375 15.625C9.7894 15.625 10.1868 15.7896 10.4799 16.0826C10.7729 16.3757 10.9375 16.7731 10.9375 17.1875C10.9375 17.6019 10.7729 17.9993 10.4799 18.2924C10.1868 18.5854 9.7894 18.75 9.375 18.75Z" fill="black"/>
</svg>
