<svg width="80" height="76" viewBox="0 0 80 76" fill="none" xmlns="http://www.w3.org/2000/svg">
<path d="M8 76C5.8 76 3.91733 75.2173 2.352 73.652C0.784 72.084 0 70.2 0 68V24C0 21.8 0.784 19.9173 2.352 18.352C3.91733 16.784 5.8 16 8 16H20V8C20 5.8 20.784 3.916 22.352 2.348C23.9173 0.782666 25.8 0 28 0H52C54.2 0 56.084 0.782666 57.652 2.348C59.2173 3.916 60 5.8 60 8V16H72C74.2 16 76.084 16.784 77.652 18.352C79.2173 19.9173 80 21.8 80 24V68C80 70.2 79.2173 72.084 77.652 73.652C76.084 75.2173 74.2 76 72 76H8ZM8 60H72V48H8V60ZM28 16H52V8H28V16Z" fill="black"/>
</svg>
