<svg width="30" height="30" viewBox="0 0 30 30" fill="none" xmlns="http://www.w3.org/2000/svg">
<circle cx="15" cy="15" r="14.5" fill="white" stroke="black"/>
<path d="M22.5833 8.05208C22.375 7.4375 21.7917 7 21.1042 7H9.64583C8.95833 7 8.38542 7.4375 8.16667 8.05208L6 14.2917V22.625C6 23.1979 6.46875 23.6667 7.04167 23.6667H8.08333C8.65625 23.6667 9.125 23.1979 9.125 22.625V21.5833H21.625V22.625C21.625 23.1979 22.0938 23.6667 22.6667 23.6667H23.7083C24.2812 23.6667 24.75 23.1979 24.75 22.625V14.2917L22.5833 8.05208ZM9.64583 18.4583C8.78125 18.4583 8.08333 17.7604 8.08333 16.8958C8.08333 16.0312 8.78125 15.3333 9.64583 15.3333C10.5104 15.3333 11.2083 16.0312 11.2083 16.8958C11.2083 17.7604 10.5104 18.4583 9.64583 18.4583ZM21.1042 18.4583C20.2396 18.4583 19.5417 17.7604 19.5417 16.8958C19.5417 16.0312 20.2396 15.3333 21.1042 15.3333C21.9687 15.3333 22.6667 16.0312 22.6667 16.8958C22.6667 17.7604 21.9687 18.4583 21.1042 18.4583ZM8.08333 13.25L9.64583 8.5625H21.1042L22.6667 13.25H8.08333Z" fill="black"/>
</svg>
