<svg width="20" height="18" viewBox="0 0 20 18" fill="none" xmlns="http://www.w3.org/2000/svg">
<path d="M2.6087 2.57143V0H4.34783V2.57143H6.95652V4.28571H4.34783V6.85714H2.6087V4.28571H0V2.57143H2.6087ZM5.21739 7.71429V5.14286H7.82609V2.57143H13.913L15.5043 4.28571H18.2609C19.2174 4.28571 20 5.05714 20 6V16.2857C20 17.2286 19.2174 18 18.2609 18H4.34783C3.3913 18 2.6087 17.2286 2.6087 16.2857V7.71429H5.21739ZM11.3043 15.4286C13.7043 15.4286 15.6522 13.5086 15.6522 11.1429C15.6522 8.77714 13.7043 6.85714 11.3043 6.85714C8.90435 6.85714 6.95652 8.77714 6.95652 11.1429C6.95652 13.5086 8.90435 15.4286 11.3043 15.4286ZM8.52174 11.1429C8.52174 12.66 9.76522 13.8857 11.3043 13.8857C12.8435 13.8857 14.087 12.66 14.087 11.1429C14.087 9.62571 12.8435 8.4 11.3043 8.4C9.76522 8.4 8.52174 9.62571 8.52174 11.1429Z" fill="black"/>
</svg>
