<svg width="60" height="60" viewBox="0 0 60 60" fill="none" xmlns="http://www.w3.org/2000/svg">
<path fill-rule="evenodd" clip-rule="evenodd" d="M44.4 31.7136C44.4 37.3944 36.8784 42 27.6 42C18.3216 42 10.8 37.3944 10.8 31.7136C10.8 26.0328 18.3216 21.4295 27.6 21.4295C36.8784 21.4295 44.4 26.0328 44.4 31.7136Z" stroke="black" stroke-width="3.6" stroke-linecap="round" stroke-linejoin="round"/>
<path fill-rule="evenodd" clip-rule="evenodd" d="M31.8002 31.7136C31.8353 33.4198 30.8345 34.9776 29.2682 35.6549C27.7018 36.3322 25.8814 35.9945 24.6622 34.8005C23.443 33.6065 23.0676 31.7933 23.7122 30.2134C24.3569 28.6332 25.8936 27.6002 27.6002 27.6C28.7026 27.5885 29.7646 28.0154 30.5522 28.7868C31.3399 29.5584 31.7887 30.611 31.8002 31.7136Z" stroke="black" stroke-width="3.6" stroke-linecap="round" stroke-linejoin="round"/>
<path d="M25.8 21.4296C25.8 22.4237 26.6059 23.2296 27.6 23.2296C28.5941 23.2296 29.4 22.4237 29.4 21.4296H25.8ZM29.4 13.2C29.4 12.2059 28.5941 11.4 27.6 11.4C26.6059 11.4 25.8 12.2059 25.8 13.2H29.4ZM43.9034 18.1313C44.3551 17.2457 44.0033 16.1617 43.1177 15.7101C42.2321 15.2584 41.148 15.6103 40.6966 16.4959L43.9034 18.1313ZM37.2478 23.2591C36.7961 24.1447 37.1479 25.2288 38.0335 25.6802C38.9191 26.1319 40.0032 25.7801 40.4546 24.8945L37.2478 23.2591ZM14.5035 16.4959C14.0519 15.6103 12.9679 15.2584 12.0823 15.7101C11.1967 16.1617 10.8448 17.2457 11.2965 18.1313L14.5035 16.4959ZM14.7453 24.8945C15.1969 25.7801 16.2809 26.1319 17.1665 25.6802C18.0521 25.2288 18.4039 24.1447 17.9523 23.2591L14.7453 24.8945ZM29.4 21.4296V13.2H25.8V21.4296H29.4ZM40.6966 16.4959L37.2478 23.2591L40.4546 24.8945L43.9034 18.1313L40.6966 16.4959ZM11.2965 18.1313L14.7453 24.8945L17.9523 23.2591L14.5035 16.4959L11.2965 18.1313Z" fill="black"/>
</svg>
