<svg width="30" height="30" viewBox="0 0 30 30" fill="none" xmlns="http://www.w3.org/2000/svg">
    <path fill-rule="evenodd" clip-rule="evenodd" d="M17.2538 6.66666C17.2538 4.36548 19.1278 2.5 21.4394 2.5C23.751 2.5 25.625 4.36548 25.625 6.66666C25.625 8.96785 23.751 10.8333 21.4394 10.8333C20.2721 10.8333 19.2173 10.3575 18.4589 9.59184L12.6646 13.5369C12.7181 13.8031 12.7462 14.0781 12.7462 14.359C12.7462 14.9152 12.6362 15.447 12.437 15.933L18.7904 20.1073C19.5115 19.5201 20.4341 19.1666 21.4394 19.1666C23.751 19.1666 25.625 21.0321 25.625 23.3334C25.625 25.6345 23.751 27.5 21.4394 27.5C19.1278 27.5 17.2538 25.6345 17.2538 23.3334C17.2538 22.7306 17.3827 22.1569 17.6146 21.6389L11.3126 17.4984C10.5774 18.1372 9.6145 18.5256 8.5606 18.5256C6.24896 18.5256 4.375 16.6601 4.375 14.359C4.375 12.0578 6.24896 10.1923 8.5606 10.1923C9.88988 10.1923 11.0732 10.8091 11.8393 11.769L17.4549 7.94553C17.3242 7.54199 17.2538 7.112 17.2538 6.66666Z" fill="black"/>
</svg>
