<svg width="173" height="139" viewBox="0 0 173 139" fill="none" xmlns="http://www.w3.org/2000/svg">
<mask id="path-1-inside-1_641_52" fill="white">
<path fill-rule="evenodd" clip-rule="evenodd" d="M86 78C107.539 78 125 60.5391 125 39C125 17.4609 107.539 0 86 0C64.4609 0 47 17.4609 47 39C47 60.5391 64.4609 78 86 78ZM109.387 39.0001C109.2 44.5816 107.707 49.2917 105.216 52.9898C101.338 60.5653 92.2487 71.5016 75.2228 73.2492C79.7488 70.5872 83.682 66.9012 86.6404 62.3974C86.5077 62.3992 86.3745 62.4001 86.241 62.4001C73.1845 62.4001 62.6 51.9235 62.6 39.0001C62.6 26.0766 73.1845 15.6001 86.241 15.6001C99.2976 15.6001 109.821 26.0837 109.387 39.0001Z"/>
</mask>
<path fill-rule="evenodd" clip-rule="evenodd" d="M86 78C107.539 78 125 60.5391 125 39C125 17.4609 107.539 0 86 0C64.4609 0 47 17.4609 47 39C47 60.5391 64.4609 78 86 78ZM109.387 39.0001C109.2 44.5816 107.707 49.2917 105.216 52.9898C101.338 60.5653 92.2487 71.5016 75.2228 73.2492C79.7488 70.5872 83.682 66.9012 86.6404 62.3974C86.5077 62.3992 86.3745 62.4001 86.241 62.4001C73.1845 62.4001 62.6 51.9235 62.6 39.0001C62.6 26.0766 73.1845 15.6001 86.241 15.6001C99.2976 15.6001 109.821 26.0837 109.387 39.0001Z" fill="#0F0F0F"/>
<path d="M105.216 52.9898L104.386 52.4311L104.353 52.4808L104.325 52.5342L105.216 52.9898ZM109.387 39.0001L108.388 38.9665L108.388 38.9665L109.387 39.0001ZM75.2228 73.2492L74.7159 72.3872L75.3249 74.244L75.2228 73.2492ZM86.6404 62.3974L87.4763 62.9464L88.5105 61.3718L86.6268 61.3975L86.6404 62.3974ZM124 39C124 59.9868 106.987 77 86 77V79C108.091 79 126 61.0914 126 39H124ZM86 1C106.987 1 124 18.0132 124 39H126C126 16.9086 108.091 -1 86 -1V1ZM48 39C48 18.0132 65.0132 1 86 1V-1C63.9086 -1 46 16.9086 46 39H48ZM86 77C65.0132 77 48 59.9868 48 39H46C46 61.0914 63.9086 79 86 79V77ZM106.045 53.5486C108.656 49.6736 110.194 44.7754 110.386 39.0336L108.388 38.9665C108.206 44.3879 106.758 48.9098 104.386 52.4311L106.045 53.5486ZM75.3249 74.244C92.7914 72.4512 102.128 61.2164 106.106 53.4455L104.325 52.5342C100.548 59.9142 91.706 70.5521 75.1207 72.2544L75.3249 74.244ZM85.8046 61.8483C82.9322 66.2213 79.1126 69.8013 74.7159 72.3872L75.7298 74.1112C80.3851 71.3731 84.4318 67.5812 87.4763 62.9464L85.8046 61.8483ZM86.241 63.4001C86.379 63.4001 86.5167 63.3991 86.6541 63.3973L86.6268 61.3975C86.4986 61.3992 86.37 61.4001 86.241 61.4001V63.4001ZM61.6 39.0001C61.6 52.4855 72.6419 63.4001 86.241 63.4001V61.4001C73.7271 61.4001 63.6 51.3616 63.6 39.0001H61.6ZM86.241 14.6001C72.6419 14.6001 61.6 25.5147 61.6 39.0001H63.6C63.6 26.6385 73.7271 16.6001 86.241 16.6001V14.6001ZM110.386 39.0336C110.84 25.5263 99.8368 14.6001 86.241 14.6001V16.6001C98.7585 16.6001 108.802 26.6412 108.388 38.9665L110.386 39.0336Z" fill="url(#paint0_linear_641_52)" mask="url(#path-1-inside-1_641_52)"/>
<path d="M18.045 126.63C9.54 126.63 2.34 120.78 2.34 109.44C2.34 98.28 9.81 91.89 18.315 91.89C22.68 91.89 26.19 93.915 28.485 96.255L24.3 101.385C22.59 99.855 20.835 98.775 18.45 98.775C14.13 98.775 10.575 102.645 10.575 109.17C10.575 115.83 13.635 119.7 18.36 119.7C21.06 119.7 23.175 118.35 24.75 116.64L28.98 121.68C26.145 124.965 22.41 126.63 18.045 126.63ZM45.4145 126.63C36.2795 126.63 30.0695 120.06 30.0695 109.08C30.0695 98.1 36.2795 91.89 45.4145 91.89C54.5495 91.89 60.7595 98.145 60.7595 109.08C60.7595 120.06 54.5495 126.63 45.4145 126.63ZM45.4145 119.7C49.8245 119.7 52.5695 115.56 52.5695 109.08C52.5695 102.6 49.8245 98.775 45.4145 98.775C41.0045 98.775 38.3045 102.6 38.3045 109.08C38.3045 115.56 41.0045 119.7 45.4145 119.7ZM66.9755 126V92.475H75.6605L80.9705 106.965C81.6455 108.9 82.1855 111.015 82.8155 113.04H83.0405C83.7155 111.015 84.2555 108.9 84.8855 106.965L90.0155 92.475H98.7455V126H91.4105V114.525C91.4105 111.195 92.0405 106.2 92.4905 102.915H92.2655L89.4755 110.925L84.9755 123.165H80.5655L76.0205 110.925L73.3205 102.915H73.1405C73.5455 106.2 74.1755 111.195 74.1755 114.525V126H66.9755ZM106.438 126V92.475H115.123L120.433 106.965C121.108 108.9 121.648 111.015 122.278 113.04H122.503C123.178 111.015 123.718 108.9 124.348 106.965L129.478 92.475H138.208V126H130.873V114.525C130.873 111.195 131.503 106.2 131.953 102.915H131.728L128.938 110.925L124.438 123.165H120.028L115.483 110.925L112.783 102.915H112.603C113.008 106.2 113.638 111.195 113.638 114.525V126H106.438ZM141.671 126L152.066 92.475H161.696L172.091 126H163.631L159.446 109.26C158.546 105.93 157.691 101.925 156.791 98.505H156.611C155.801 102.015 154.901 105.93 154.046 109.26L149.861 126H141.671ZM148.736 118.305V112.095H164.936V118.305H148.736Z" fill="#090808"/>
<defs>
<linearGradient id="paint0_linear_641_52" x1="57.92" y1="11.7" x2="120.32" y2="62.4" gradientUnits="userSpaceOnUse">
<stop stop-color="#434242"/>
<stop offset="0.465" stop-color="#FFFBFB"/>
<stop offset="0.98" stop-color="#2D2C2C"/>
</linearGradient>
</defs>
</svg>
