<svg width="125" height="23" viewBox="0 0 125 23" fill="none" xmlns="http://www.w3.org/2000/svg">
<path d="M7.45121 4.5504C8.77063 2.18347 9.43031 1 10.4167 1C11.403 1 12.0627 2.18346 13.3821 4.55039L13.7234 5.16274C14.0984 5.83534 14.2858 6.17166 14.5782 6.39355C14.8705 6.61545 15.2345 6.69781 15.9626 6.86255L16.6255 7.01253C19.1876 7.59225 20.4688 7.8821 20.7735 8.86222C21.0783 9.84229 20.205 10.8636 18.4582 12.9061L18.0064 13.4346C17.51 14.015 17.2618 14.3052 17.1501 14.6643C17.0385 15.0233 17.076 15.4105 17.151 16.185L17.2194 16.89C17.4834 19.6152 17.6155 20.9778 16.8176 21.5835C16.0196 22.1893 14.8201 21.637 12.4211 20.5325L11.8005 20.2467C11.1189 19.9328 10.778 19.7758 10.4167 19.7758C10.0553 19.7758 9.71448 19.9328 9.03281 20.2467L8.41219 20.5325C6.01321 21.637 4.81373 22.1893 4.01578 21.5835C3.21784 20.9778 3.34988 19.6152 3.61396 16.89L3.68227 16.185C3.75732 15.4105 3.79485 15.0233 3.68319 14.6643C3.57154 14.3052 3.32337 14.015 2.827 13.4346L2.37511 12.9061C0.628387 10.8636 -0.244977 9.84229 0.0598145 8.86222C0.364606 7.8821 1.64569 7.59225 4.20786 7.01253L4.87072 6.86255C5.5988 6.69781 5.96285 6.61545 6.25515 6.39355C6.54745 6.17166 6.73493 5.83535 7.10987 5.16274L7.45121 4.5504Z" fill="#FF6B00"/>
<path d="M33.2846 4.5504C34.604 2.18347 35.2637 1 36.25 1C37.2364 1 37.8961 2.18346 39.2155 4.55039L39.5568 5.16274C39.9318 5.83534 40.1192 6.17166 40.4116 6.39355C40.7039 6.61545 41.0679 6.69781 41.796 6.86255L42.4589 7.01253C45.021 7.59225 46.3021 7.8821 46.6069 8.86222C46.9117 9.84229 46.0384 10.8636 44.2916 12.9061L43.8397 13.4346C43.3434 14.015 43.0951 14.3052 42.9835 14.6643C42.8719 15.0233 42.9094 15.4105 42.9844 16.185L43.0527 16.89C43.3168 19.6152 43.4489 20.9778 42.651 21.5835C41.853 22.1893 40.6535 21.637 38.2545 20.5325L37.6339 20.2467C36.9522 19.9328 36.6114 19.7758 36.25 19.7758C35.8887 19.7758 35.5479 19.9328 34.8662 20.2467L34.2456 20.5325C31.8466 21.637 30.6471 22.1893 29.8492 21.5835C29.0512 20.9778 29.1833 19.6152 29.4473 16.89L29.5156 16.185C29.5907 15.4105 29.6282 15.0233 29.5166 14.6643C29.4049 14.3052 29.1567 14.015 28.6604 13.4346L28.2085 12.9061C26.4618 10.8636 25.5884 9.84229 25.8932 8.86222C26.198 7.8821 27.4791 7.59225 30.0412 7.01253L30.7041 6.86255C31.4322 6.69781 31.7962 6.61545 32.0885 6.39355C32.3808 6.17166 32.5683 5.83535 32.9432 5.16274L33.2846 4.5504Z" fill="#FF6B00"/>
<path d="M59.118 4.5504C60.4374 2.18347 61.0971 1 62.0834 1C63.0698 1 63.7295 2.18346 65.0488 4.55039L65.3902 5.16274C65.7652 5.83534 65.9526 6.17166 66.245 6.39355C66.5373 6.61545 66.9012 6.69781 67.6294 6.86255L68.2923 7.01253C70.8544 7.59225 72.1355 7.8821 72.4403 8.86222C72.7451 9.84229 71.8717 10.8636 70.125 12.9061L69.6731 13.4346C69.1768 14.015 68.9285 14.3052 68.8169 14.6643C68.7053 15.0233 68.7428 15.4105 68.8178 16.185L68.8861 16.89C69.1502 19.6152 69.2823 20.9778 68.4844 21.5835C67.6863 22.1893 66.4869 21.637 64.0879 20.5325L63.4673 20.2467C62.7856 19.9328 62.4448 19.7758 62.0834 19.7758C61.7221 19.7758 61.3812 19.9328 60.6996 20.2467L60.0789 20.5325C57.68 21.637 56.4805 22.1893 55.6825 21.5835C54.8846 20.9778 55.0166 19.6152 55.2807 16.89L55.349 16.185C55.4241 15.4105 55.4616 15.0233 55.3499 14.6643C55.2383 14.3052 54.9901 14.015 54.4938 13.4346L54.0419 12.9061C52.2951 10.8636 51.4218 9.84229 51.7266 8.86222C52.0314 7.8821 53.3124 7.59225 55.8746 7.01253L56.5375 6.86255C57.2656 6.69781 57.6296 6.61545 57.9219 6.39355C58.2142 6.17166 58.4017 5.83535 58.7766 5.16274L59.118 4.5504Z" fill="#FF6B00"/>
<path d="M84.9513 4.5504C86.2707 2.18347 86.9304 1 87.9168 1C88.9031 1 89.5628 2.18346 90.8822 4.55039L91.2236 5.16274C91.5986 5.83534 91.786 6.17166 92.0784 6.39355C92.3706 6.61545 92.7346 6.69781 93.4627 6.86255L94.1256 7.01253C96.6877 7.59225 97.9689 7.8821 98.2737 8.86222C98.5785 9.84229 97.7051 10.8636 95.9584 12.9061L95.5065 13.4346C95.0101 14.015 94.7619 14.3052 94.6502 14.6643C94.5387 15.0233 94.5762 15.4105 94.6512 16.185L94.7195 16.89C94.9836 19.6152 95.1156 20.9778 94.3177 21.5835C93.5197 22.1893 92.3202 21.637 89.9213 20.5325L89.3006 20.2467C88.619 19.9328 88.2781 19.7758 87.9168 19.7758C87.5554 19.7758 87.2146 19.9328 86.5329 20.2467L85.9123 20.5325C83.5133 21.637 82.3139 22.1893 81.5159 21.5835C80.718 20.9778 80.85 19.6152 81.1141 16.89L81.1824 16.185C81.2574 15.4105 81.295 15.0233 81.1833 14.6643C81.0717 14.3052 80.8235 14.015 80.3271 13.4346L79.8752 12.9061C78.1285 10.8636 77.2551 9.84229 77.5599 8.86222C77.8647 7.8821 79.1458 7.59225 81.708 7.01253L82.3708 6.86255C83.0989 6.69781 83.463 6.61545 83.7553 6.39355C84.0476 6.17166 84.2351 5.83535 84.61 5.16274L84.9513 4.5504Z" stroke="#FF6B00"/>
<path d="M110.785 4.5504C112.104 2.18347 112.764 1 113.75 1C114.737 1 115.396 2.18346 116.716 4.55039L117.057 5.16274C117.432 5.83534 117.619 6.17166 117.912 6.39355C118.204 6.61545 118.568 6.69781 119.296 6.86255L119.959 7.01253C122.521 7.59225 123.802 7.8821 124.107 8.86222C124.412 9.84229 123.538 10.8636 121.792 12.9061L121.34 13.4346C120.843 14.015 120.595 14.3052 120.484 14.6643C120.372 15.0233 120.41 15.4105 120.485 16.185L120.553 16.89C120.817 19.6152 120.949 20.9778 120.151 21.5835C119.353 22.1893 118.154 21.637 115.755 20.5325L115.134 20.2467C114.452 19.9328 114.112 19.7758 113.75 19.7758C113.389 19.7758 113.048 19.9328 112.366 20.2467L111.746 20.5325C109.347 21.637 108.147 22.1893 107.349 21.5835C106.551 20.9778 106.683 19.6152 106.947 16.89L107.016 16.185C107.091 15.4105 107.128 15.0233 107.017 14.6643C106.905 14.3052 106.657 14.015 106.16 13.4346L105.709 12.9061C103.962 10.8636 103.089 9.84229 103.393 8.86222C103.698 7.8821 104.979 7.59225 107.541 7.01253L108.204 6.86255C108.932 6.69781 109.296 6.61545 109.589 6.39355C109.881 6.17166 110.068 5.83535 110.443 5.16274L110.785 4.5504Z" stroke="#FF6B00"/>
</svg>
