<svg width="25" height="19" viewBox="0 0 25 19" fill="none" xmlns="http://www.w3.org/2000/svg">
<path fill-rule="evenodd" clip-rule="evenodd" d="M23.4375 15.625C23.4375 15.7836 23.407 15.9336 23.3633 16.0766L16.4062 8.59375L23.4375 3.125V15.625ZM2.77812 17.1453L9.82811 9.6328L12.5 11.6524L15.0563 9.62031L22.2219 17.1453C22.1102 17.1711 2.88984 17.1711 2.77812 17.1453ZM1.5625 15.625V3.125L8.59375 8.59375L1.63672 16.0766C1.59297 15.9336 1.5625 15.7836 1.5625 15.625ZM22.6562 1.5625L12.5 9.375L2.34375 1.5625H22.6562ZM21.875 0H3.125C1.39922 0 0 1.39922 0 3.125V15.625C0 17.3508 1.39922 18.75 3.125 18.75H21.875C23.6008 18.75 25 17.3508 25 15.625V3.125C25 1.39922 23.6008 0 21.875 0Z" fill="black"/>
</svg>
