<svg width="24" height="24" viewBox="0 0 24 24" fill="none" xmlns="http://www.w3.org/2000/svg">
<path d="M4.27733 19.7933L0.710838 17.8247C0.449295 17.6816 0.300692 17.4728 0.265027 17.1983C0.229362 16.9239 0.306636 16.6913 0.496849 16.5004L0.924827 16.0709C1.01993 15.9754 1.13287 15.9098 1.26364 15.874C1.39441 15.8382 1.51924 15.8323 1.63812 15.8561L4.77663 16.2856L10.3404 10.702L0.639508 5.40468C0.282859 5.21379 0.0748142 4.91552 0.0153728 4.50987C-0.0440687 4.10422 0.0688701 3.75822 0.354189 3.47188L0.710838 3.11396C0.877274 2.94692 1.06154 2.83955 1.26364 2.79182C1.46574 2.7441 1.67379 2.7441 1.88778 2.79182L14.8341 6.12054L20.3978 0.608474C20.8021 0.202825 21.3014 0 21.8958 0C22.4902 0 22.9895 0.202825 23.3937 0.608474C23.7979 1.01412 24 1.51522 24 2.11176C24 2.70831 23.7979 3.2094 23.3937 3.61505L17.9013 9.1987L21.2181 22.1198C21.2657 22.3585 21.2598 22.5911 21.2003 22.8178C21.1409 23.0445 21.0279 23.2413 20.8615 23.4084L20.6832 23.5873C20.3503 23.9214 19.9639 24.0526 19.5241 23.9811C19.0842 23.9095 18.7573 23.6708 18.5433 23.2652L13.3362 13.7086L7.77248 19.2922L8.20046 22.3704C8.22424 22.5374 8.21235 22.6925 8.1648 22.8357C8.11724 22.9789 8.03403 23.1101 7.91514 23.2294L7.73682 23.4084C7.49905 23.647 7.21373 23.7484 6.88086 23.7126C6.54799 23.6768 6.29833 23.5038 6.1319 23.1936L4.27733 19.7933Z" fill="black"/>
</svg>
