<svg width="133" height="26" viewBox="0 0 133 26" fill="none" xmlns="http://www.w3.org/2000/svg">
<circle cx="9" cy="13" r="8.45" stroke="black" stroke-width="1.1"/>
<mask id="path-2-inside-1_643_72" fill="white">
<path d="M14.0199 14.9902C13.5517 16.1712 12.682 17.1494 11.5639 17.7526C10.4457 18.3558 9.15064 18.5455 7.90646 18.2882C6.66228 18.0309 5.54866 17.3432 4.76145 16.346C3.97424 15.3487 3.56385 14.1059 3.60247 12.836C3.64109 11.5661 4.12623 10.3504 4.97258 9.40286C5.81893 8.45531 6.97228 7.83651 8.22979 7.6553C9.4873 7.4741 10.7684 7.74208 11.8479 8.41213C12.9273 9.08219 13.736 10.1114 14.1315 11.3187L12.9587 11.703C12.6536 10.7716 12.0298 9.97761 11.197 9.46069C10.3643 8.94378 9.37593 8.73704 8.40581 8.87683C7.4357 9.01663 6.54594 9.494 5.89302 10.225C5.2401 10.956 4.86584 11.8938 4.83605 12.8735C4.80625 13.8532 5.12285 14.812 5.73015 15.5813C6.33744 16.3506 7.19655 16.8812 8.15638 17.0796C9.11621 17.2781 10.1153 17.1318 10.9779 16.6665C11.8405 16.2011 12.5114 15.4465 12.8726 14.5353L14.0199 14.9902Z"/>
</mask>
<path d="M14.0199 14.9902C13.5517 16.1712 12.682 17.1494 11.5639 17.7526C10.4457 18.3558 9.15064 18.5455 7.90646 18.2882C6.66228 18.0309 5.54866 17.3432 4.76145 16.346C3.97424 15.3487 3.56385 14.1059 3.60247 12.836C3.64109 11.5661 4.12623 10.3504 4.97258 9.40286C5.81893 8.45531 6.97228 7.83651 8.22979 7.6553C9.4873 7.4741 10.7684 7.74208 11.8479 8.41213C12.9273 9.08219 13.736 10.1114 14.1315 11.3187L12.9587 11.703C12.6536 10.7716 12.0298 9.97761 11.197 9.46069C10.3643 8.94378 9.37593 8.73704 8.40581 8.87683C7.4357 9.01663 6.54594 9.494 5.89302 10.225C5.2401 10.956 4.86584 11.8938 4.83605 12.8735C4.80625 13.8532 5.12285 14.812 5.73015 15.5813C6.33744 16.3506 7.19655 16.8812 8.15638 17.0796C9.11621 17.2781 10.1153 17.1318 10.9779 16.6665C11.8405 16.2011 12.5114 15.4465 12.8726 14.5353L14.0199 14.9902Z" fill="black" stroke="black" stroke-width="3" mask="url(#path-2-inside-1_643_72)"/>
<mask id="path-3-outside-2_643_72" maskUnits="userSpaceOnUse" x="20" y="7" width="43" height="15" fill="black">
<rect fill="white" x="20" y="7" width="43" height="15"/>
<path d="M20.756 21V19.488C24.392 16.23 26.516 13.728 26.516 11.676C26.516 10.344 25.814 9.516 24.536 9.516C23.546 9.516 22.772 10.146 22.088 10.902L20.63 9.462C21.854 8.148 23.06 7.446 24.878 7.446C27.38 7.446 29.072 9.048 29.072 11.532C29.072 13.962 27.056 16.554 24.626 18.93C25.292 18.858 26.174 18.768 26.804 18.768H29.684V21H20.756ZM35.9272 21.252C33.2092 21.252 31.4092 18.894 31.4092 14.286C31.4092 9.696 33.2092 7.446 35.9272 7.446C38.6272 7.446 40.4272 9.696 40.4272 14.286C40.4272 18.894 38.6272 21.252 35.9272 21.252ZM35.9272 19.182C37.0792 19.182 37.9252 18.03 37.9252 14.286C37.9252 10.56 37.0792 9.48 35.9272 9.48C34.7752 9.48 33.9112 10.56 33.9112 14.286C33.9112 18.03 34.7752 19.182 35.9272 19.182ZM41.9904 21V19.488C45.6264 16.23 47.7504 13.728 47.7504 11.676C47.7504 10.344 47.0484 9.516 45.7704 9.516C44.7804 9.516 44.0064 10.146 43.3224 10.902L41.8644 9.462C43.0884 8.148 44.2944 7.446 46.1124 7.446C48.6144 7.446 50.3064 9.048 50.3064 11.532C50.3064 13.962 48.2904 16.554 45.8604 18.93C46.5264 18.858 47.4084 18.768 48.0384 18.768H50.9184V21H41.9904ZM57.8996 21V12.81C57.8996 12.036 57.9716 10.83 58.0076 10.038H57.9356C57.5936 10.758 57.2336 11.496 56.8556 12.216L54.8036 15.528H61.9496V17.562H52.2296V15.744L57.1796 7.68H60.3656V21H57.8996Z"/>
</mask>
<path d="M20.756 21V19.488C24.392 16.23 26.516 13.728 26.516 11.676C26.516 10.344 25.814 9.516 24.536 9.516C23.546 9.516 22.772 10.146 22.088 10.902L20.63 9.462C21.854 8.148 23.06 7.446 24.878 7.446C27.38 7.446 29.072 9.048 29.072 11.532C29.072 13.962 27.056 16.554 24.626 18.93C25.292 18.858 26.174 18.768 26.804 18.768H29.684V21H20.756ZM35.9272 21.252C33.2092 21.252 31.4092 18.894 31.4092 14.286C31.4092 9.696 33.2092 7.446 35.9272 7.446C38.6272 7.446 40.4272 9.696 40.4272 14.286C40.4272 18.894 38.6272 21.252 35.9272 21.252ZM35.9272 19.182C37.0792 19.182 37.9252 18.03 37.9252 14.286C37.9252 10.56 37.0792 9.48 35.9272 9.48C34.7752 9.48 33.9112 10.56 33.9112 14.286C33.9112 18.03 34.7752 19.182 35.9272 19.182ZM41.9904 21V19.488C45.6264 16.23 47.7504 13.728 47.7504 11.676C47.7504 10.344 47.0484 9.516 45.7704 9.516C44.7804 9.516 44.0064 10.146 43.3224 10.902L41.8644 9.462C43.0884 8.148 44.2944 7.446 46.1124 7.446C48.6144 7.446 50.3064 9.048 50.3064 11.532C50.3064 13.962 48.2904 16.554 45.8604 18.93C46.5264 18.858 47.4084 18.768 48.0384 18.768H50.9184V21H41.9904ZM57.8996 21V12.81C57.8996 12.036 57.9716 10.83 58.0076 10.038H57.9356C57.5936 10.758 57.2336 11.496 56.8556 12.216L54.8036 15.528H61.9496V17.562H52.2296V15.744L57.1796 7.68H60.3656V21H57.8996Z" fill="black"/>
<path d="M20.756 21H20.556V21.2H20.756V21ZM20.756 19.488L20.6225 19.339L20.556 19.3987V19.488H20.756ZM22.088 10.902L21.9475 11.0443L22.0961 11.1911L22.2363 11.0362L22.088 10.902ZM20.63 9.462L20.4837 9.32568L20.3513 9.46781L20.4895 9.6043L20.63 9.462ZM24.626 18.93L24.4862 18.787L24.0731 19.1909L24.6475 19.1288L24.626 18.93ZM29.684 18.768H29.884V18.568H29.684V18.768ZM29.684 21V21.2H29.884V21H29.684ZM20.956 21V19.488H20.556V21H20.956ZM20.8895 19.637C22.7101 18.0056 24.1613 16.5556 25.1584 15.2512C26.1525 13.9507 26.716 12.7685 26.716 11.676H26.316C26.316 12.6355 25.8175 13.7303 24.8406 15.0083C23.8667 16.2824 22.4379 17.7124 20.6225 19.339L20.8895 19.637ZM26.716 11.676C26.716 10.9767 26.5316 10.3835 26.1541 9.96291C25.7737 9.53917 25.2201 9.316 24.536 9.316V9.716C25.1299 9.716 25.5663 9.90683 25.8564 10.2301C26.1494 10.5565 26.316 11.0433 26.316 11.676H26.716ZM24.536 9.316C23.4549 9.316 22.6296 10.0053 21.9397 10.7678L22.2363 11.0362C22.9144 10.2867 23.6371 9.716 24.536 9.716V9.316ZM22.2285 10.7597L20.7705 9.3197L20.4895 9.6043L21.9475 11.0443L22.2285 10.7597ZM20.7763 9.59832C21.3786 8.95181 21.9674 8.46573 22.6205 8.14025C23.2716 7.81575 23.9966 7.646 24.878 7.646V7.246C23.9414 7.246 23.1544 7.42725 22.442 7.78225C21.7316 8.13627 21.1054 8.65819 20.4837 9.32568L20.7763 9.59832ZM24.878 7.646C26.086 7.646 27.0817 8.03205 27.7743 8.70132C28.4661 9.36988 28.872 10.337 28.872 11.532H29.272C29.272 10.243 28.8319 9.16712 28.0522 8.41368C27.2733 7.66095 26.1721 7.246 24.878 7.246V7.646ZM28.872 11.532C28.872 12.6928 28.3896 13.91 27.5923 15.1426C26.796 16.3736 25.6962 17.6038 24.4862 18.787L24.7658 19.073C25.9858 17.8802 27.109 16.6264 27.9282 15.3599C28.7464 14.095 29.272 12.8012 29.272 11.532H28.872ZM24.6475 19.1288C25.3159 19.0566 26.1868 18.968 26.804 18.968V18.568C26.1612 18.568 25.2681 18.6594 24.6045 18.7312L24.6475 19.1288ZM26.804 18.968H29.684V18.568H26.804V18.968ZM29.484 18.768V21H29.884V18.768H29.484ZM29.684 20.8H20.756V21.2H29.684V20.8ZM35.9272 21.052C34.6349 21.052 33.5673 20.4957 32.8145 19.3848C32.0556 18.2648 31.6092 16.5681 31.6092 14.286H31.2092C31.2092 16.6119 31.6628 18.3982 32.4834 19.6092C33.3101 20.8293 34.5015 21.452 35.9272 21.452V21.052ZM31.6092 14.286C31.6092 12.0128 32.0556 10.3488 32.8132 9.2589C33.5642 8.17832 34.6314 7.646 35.9272 7.646V7.246C34.505 7.246 33.3132 7.83868 32.4847 9.0306C31.6628 10.2132 31.2092 11.9692 31.2092 14.286H31.6092ZM35.9272 7.646C37.2136 7.646 38.2763 8.17793 39.0253 9.25868C39.7808 10.3487 40.2272 12.0128 40.2272 14.286H40.6272C40.6272 11.9692 40.1736 10.2133 39.3541 9.03082C38.5281 7.83907 37.3408 7.246 35.9272 7.246V7.646ZM40.2272 14.286C40.2272 16.5681 39.7808 18.2649 39.024 19.385C38.2732 20.4961 37.21 21.052 35.9272 21.052V21.452C37.3444 21.452 38.5311 20.8289 39.3554 19.609C40.1736 18.3981 40.6272 16.6119 40.6272 14.286H40.2272ZM35.9272 19.382C36.2503 19.382 36.5601 19.3006 36.839 19.1081C37.1163 18.9168 37.3504 18.6246 37.5392 18.2231C37.9139 17.4263 38.1252 16.1662 38.1252 14.286H37.7252C37.7252 16.1498 37.5135 17.3377 37.1772 18.0529C37.0105 18.4074 36.8171 18.6372 36.6118 18.7789C36.4081 18.9194 36.18 18.982 35.9272 18.982V19.382ZM38.1252 14.286C38.1252 12.4152 37.914 11.1763 37.5383 10.3987C37.3487 10.0065 37.1137 9.72383 36.8356 9.54011C36.5565 9.35567 36.2478 9.28 35.9272 9.28V9.68C36.1825 9.68 36.4116 9.73933 36.6151 9.87383C36.8197 10.009 37.0121 10.2293 37.1781 10.5728C37.5134 11.2667 37.7252 12.4308 37.7252 14.286H38.1252ZM35.9272 9.28C35.6066 9.28 35.297 9.35565 35.0165 9.53976C34.7369 9.72319 34.4995 10.0056 34.3075 10.3978C33.927 11.1756 33.7112 12.4147 33.7112 14.286H34.1112C34.1112 12.4313 34.3274 11.2674 34.6668 10.5737C34.8349 10.2302 35.0294 10.0097 35.2359 9.87418C35.4414 9.73935 35.6718 9.68 35.9272 9.68V9.28ZM33.7112 14.286C33.7112 16.1666 33.9271 17.427 34.3066 18.224C34.4978 18.6255 34.7343 18.9174 35.0131 19.1085C35.2935 19.3006 35.6041 19.382 35.9272 19.382V18.982C35.6743 18.982 35.4449 18.9194 35.2392 18.7785C35.0321 18.6366 34.8366 18.4065 34.6678 18.052C34.3273 17.337 34.1112 16.1494 34.1112 14.286H33.7112ZM41.9904 21H41.7904V21.2H41.9904V21ZM41.9904 19.488L41.8569 19.339L41.7904 19.3987V19.488H41.9904ZM43.3224 10.902L43.1818 11.0443L43.3305 11.1911L43.4707 11.0362L43.3224 10.902ZM41.8644 9.462L41.718 9.32568L41.5856 9.46781L41.7238 9.6043L41.8644 9.462ZM45.8604 18.93L45.7206 18.787L45.3074 19.1909L45.8819 19.1288L45.8604 18.93ZM50.9184 18.768H51.1184V18.568H50.9184V18.768ZM50.9184 21V21.2H51.1184V21H50.9184ZM42.1904 21V19.488H41.7904V21H42.1904ZM42.1238 19.637C43.9445 18.0056 45.3957 16.5556 46.3928 15.2512C47.3869 13.9507 47.9504 12.7685 47.9504 11.676H47.5504C47.5504 12.6355 47.0519 13.7303 46.075 15.0083C45.1011 16.2824 43.6723 17.7124 41.8569 19.339L42.1238 19.637ZM47.9504 11.676C47.9504 10.9767 47.766 10.3835 47.3885 9.96291C47.0081 9.53917 46.4545 9.316 45.7704 9.316V9.716C46.3643 9.716 46.8006 9.90683 47.0908 10.2301C47.3838 10.5565 47.5504 11.0433 47.5504 11.676H47.9504ZM45.7704 9.316C44.6893 9.316 43.864 10.0053 43.1741 10.7678L43.4707 11.0362C44.1488 10.2867 44.8714 9.716 45.7704 9.716V9.316ZM43.4629 10.7597L42.0049 9.3197L41.7238 9.6043L43.1818 11.0443L43.4629 10.7597ZM42.0107 9.59832C42.6129 8.95181 43.2017 8.46573 43.8548 8.14025C44.506 7.81575 45.2309 7.646 46.1124 7.646V7.246C45.1758 7.246 44.3888 7.42725 43.6764 7.78225C42.966 8.13627 42.3398 8.65819 41.718 9.32568L42.0107 9.59832ZM46.1124 7.646C47.3203 7.646 48.3161 8.03205 49.0086 8.70132C49.7005 9.36988 50.1064 10.337 50.1064 11.532H50.5064C50.5064 10.243 50.0663 9.16712 49.2866 8.41368C48.5077 7.66095 47.4064 7.246 46.1124 7.246V7.646ZM50.1064 11.532C50.1064 12.6928 49.624 13.91 48.8267 15.1426C48.0304 16.3736 46.9306 17.6038 45.7206 18.787L46.0002 19.073C47.2201 17.8802 48.3433 16.6264 49.1626 15.3599C49.9807 14.095 50.5064 12.8012 50.5064 11.532H50.1064ZM45.8819 19.1288C46.5502 19.0566 47.4211 18.968 48.0384 18.968V18.568C47.3956 18.568 46.5025 18.6594 45.8389 18.7312L45.8819 19.1288ZM48.0384 18.968H50.9184V18.568H48.0384V18.968ZM50.7184 18.768V21H51.1184V18.768H50.7184ZM50.9184 20.8H41.9904V21.2H50.9184V20.8ZM57.8996 21H57.6996V21.2H57.8996V21ZM58.0076 10.038L58.2074 10.0471L58.2169 9.838H58.0076V10.038ZM57.9356 10.038V9.838H57.8091L57.7549 9.95219L57.9356 10.038ZM56.8556 12.216L57.0256 12.3213L57.0293 12.3153L57.0326 12.309L56.8556 12.216ZM54.8036 15.528L54.6335 15.4227L54.4444 15.728H54.8036V15.528ZM61.9496 15.528H62.1496V15.328H61.9496V15.528ZM61.9496 17.562V17.762H62.1496V17.562H61.9496ZM52.2296 17.562H52.0296V17.762H52.2296V17.562ZM52.2296 15.744L52.0591 15.6394L52.0296 15.6875V15.744H52.2296ZM57.1796 7.68V7.48H57.0677L57.0091 7.57537L57.1796 7.68ZM60.3656 7.68H60.5656V7.48H60.3656V7.68ZM60.3656 21V21.2H60.5656V21H60.3656ZM58.0996 21V12.81H57.6996V21H58.0996ZM58.0996 12.81C58.0996 12.0421 58.1711 10.845 58.2074 10.0471L57.8078 10.0289C57.772 10.815 57.6996 12.0299 57.6996 12.81H58.0996ZM58.0076 9.838H57.9356V10.238H58.0076V9.838ZM57.7549 9.95219C57.4134 10.6711 57.0547 11.4064 56.6785 12.123L57.0326 12.309C57.4124 11.5856 57.7737 10.8449 58.1162 10.1238L57.7549 9.95219ZM56.6855 12.1107L54.6335 15.4227L54.9736 15.6333L57.0256 12.3213L56.6855 12.1107ZM54.8036 15.728H61.9496V15.328H54.8036V15.728ZM61.7496 15.528V17.562H62.1496V15.528H61.7496ZM61.9496 17.362H52.2296V17.762H61.9496V17.362ZM52.4296 17.562V15.744H52.0296V17.562H52.4296ZM52.4 15.8486L57.35 7.78463L57.0091 7.57537L52.0591 15.6394L52.4 15.8486ZM57.1796 7.88H60.3656V7.48H57.1796V7.88ZM60.1656 7.68V21H60.5656V7.68H60.1656ZM60.3656 20.8H57.8996V21.2H60.3656V20.8Z" fill="black" mask="url(#path-3-outside-2_643_72)"/>
<path d="M72.056 21.252C68.69 21.252 65.972 18.84 65.972 14.394C65.972 10.002 68.78 7.446 72.164 7.446C73.856 7.446 75.206 8.238 76.07 9.138L74.666 10.848C73.982 10.182 73.226 9.732 72.2 9.732C70.202 9.732 68.69 11.46 68.69 14.304C68.69 17.22 70.04 18.948 72.164 18.948C73.298 18.948 74.198 18.408 74.9 17.634L76.304 19.308C75.206 20.586 73.784 21.252 72.056 21.252ZM82.9339 21.252C79.3879 21.252 76.9759 18.624 76.9759 14.286C76.9759 9.948 79.3879 7.446 82.9339 7.446C86.4619 7.446 88.8739 9.966 88.8739 14.286C88.8739 18.624 86.4619 21.252 82.9339 21.252ZM82.9339 18.948C84.9139 18.948 86.1739 17.13 86.1739 14.286C86.1739 11.442 84.9139 9.732 82.9339 9.732C80.9359 9.732 79.6939 11.442 79.6939 14.286C79.6939 17.13 80.9359 18.948 82.9339 18.948ZM91.4935 21V7.68H94.4275L96.6955 13.926C97.0015 14.754 97.2355 15.618 97.5235 16.482H97.5955C97.9015 15.618 98.1355 14.754 98.4055 13.926L100.619 7.68H103.571V21H101.141V15.438C101.141 14.178 101.357 12.324 101.501 11.064H101.411L100.313 14.196L98.2615 19.812H96.7315L94.6795 14.196L93.5995 11.064H93.5275C93.6715 12.324 93.8695 14.178 93.8695 15.438V21H91.4935ZM106.839 21V7.68H109.773L112.041 13.926C112.347 14.754 112.581 15.618 112.869 16.482H112.941C113.247 15.618 113.481 14.754 113.751 13.926L115.965 7.68H118.917V21H116.487V15.438C116.487 14.178 116.703 12.324 116.847 11.064H116.757L115.659 14.196L113.607 19.812H112.077L110.025 14.196L108.945 11.064H108.873C109.017 12.324 109.215 14.178 109.215 15.438V21H106.839ZM120.475 21L124.741 7.68H127.873L132.139 21H129.349L127.441 14.07C127.045 12.684 126.667 11.136 126.289 9.714H126.217C125.857 11.154 125.479 12.684 125.083 14.07L123.175 21H120.475ZM123.121 17.58V15.528H129.457V17.58H123.121Z" fill="#FF6B00"/>
</svg>
