<svg width="25" height="22" viewBox="0 0 25 22" fill="none" xmlns="http://www.w3.org/2000/svg">
<path d="M11.7795 3.46312L12.5 4.21168L13.2205 3.46311C15.7769 0.807041 18.4561 0.572457 20.4436 1.48094C22.4941 2.41825 24 4.65004 24 7.31524C24 10.0425 22.8848 12.1455 21.2804 13.9521C19.9567 15.4426 18.3549 16.6776 16.7874 17.8861C16.4145 18.1736 16.0436 18.4596 15.6788 18.7472C15.0207 19.266 14.4375 19.7181 13.8765 20.0459C13.3152 20.3739 12.8711 20.5189 12.5 20.5189C12.1289 20.5189 11.6848 20.3739 11.1235 20.0459C10.5626 19.7181 9.97936 19.266 9.32125 18.7472C8.95644 18.4596 8.58547 18.1736 8.21257 17.8861C6.6451 16.6776 5.04333 15.4426 3.71959 13.9521C2.11522 12.1455 1 10.0425 1 7.31524C1 4.65003 2.5059 2.41825 4.55643 1.48094C6.54392 0.572458 9.22304 0.80704 11.7795 3.46312Z" stroke="#8B8C8E" stroke-width="2"/>
</svg>
