<svg width="30" height="30" viewBox="0 0 30 30" fill="none" xmlns="http://www.w3.org/2000/svg">
<circle cx="15" cy="15" r="14.5" fill="white" stroke="black"/>
<path d="M16.5 8.72093C17.6 8.72093 18.5 7.88372 18.5 6.86047C18.5 5.83721 17.6 5 16.5 5C15.4 5 14.5 5.83721 14.5 6.86047C14.5 7.88372 15.4 8.72093 16.5 8.72093ZM12.8 11.8837L10 25H12.1L13.9 17.5581L16 19.4186V25H18V18.0233L15.9 16.1628L16.5 13.3721C17.8 14.7674 19.8 15.6977 22 15.6977V13.8372C20.1 13.8372 18.5 12.907 17.7 11.6047L16.7 10.1163C16.3 9.55814 15.7 9.18605 15 9.18605C14.7 9.18605 14.5 9.27907 14.2 9.27907L9 11.3256V15.6977H11V12.5349L12.8 11.8837Z" fill="black"/>
</svg>
