<svg width="30" height="30" viewBox="0 0 30 30" fill="none" xmlns="http://www.w3.org/2000/svg">
<circle cx="15" cy="15" r="14.5" fill="white" stroke="black"/>
<path d="M7 19.5833C7 20.5 7.40625 21.3229 8.04167 21.8958V23.75C8.04167 24.3229 8.51042 24.7917 9.08333 24.7917H10.125C10.6979 24.7917 11.1667 24.3229 11.1667 23.75V22.7083H19.5V23.75C19.5 24.3229 19.9687 24.7917 20.5417 24.7917H21.5833C22.1562 24.7917 22.625 24.3229 22.625 23.75V21.8958C23.2604 21.3229 23.6667 20.5 23.6667 19.5833V9.16667C23.6667 5.52083 19.9375 5 15.3333 5C10.7292 5 7 5.52083 7 9.16667V19.5833ZM10.6458 20.625C9.78125 20.625 9.08333 19.9271 9.08333 19.0625C9.08333 18.1979 9.78125 17.5 10.6458 17.5C11.5104 17.5 12.2083 18.1979 12.2083 19.0625C12.2083 19.9271 11.5104 20.625 10.6458 20.625ZM20.0208 20.625C19.1562 20.625 18.4583 19.9271 18.4583 19.0625C18.4583 18.1979 19.1562 17.5 20.0208 17.5C20.8854 17.5 21.5833 18.1979 21.5833 19.0625C21.5833 19.9271 20.8854 20.625 20.0208 20.625ZM21.5833 14.375H9.08333V9.16667H21.5833V14.375Z" fill="black"/>
</svg>
