<svg width="22" height="22" viewBox="0 0 22 22" fill="none" xmlns="http://www.w3.org/2000/svg">
<path fill-rule="evenodd" clip-rule="evenodd" d="M20.0013 1.81984C18.7809 0.599459 16.8024 0.599449 15.582 1.81984L13.8322 3.56964L5.59674 11.805C5.46324 11.9385 5.36854 12.1058 5.32275 12.289L4.28108 16.4556C4.19233 16.8106 4.29634 17.1861 4.55507 17.4448C4.8138 17.7035 5.18931 17.8076 5.54429 17.7189L9.71092 16.6772C9.89415 16.6314 10.0613 16.5367 10.1949 16.4031L18.3704 8.22768L20.1801 6.41798C21.4005 5.19759 21.4005 3.21895 20.1801 1.99856L20.0013 1.81984ZM17.0551 3.29298C17.4619 2.88619 18.1214 2.88619 18.5282 3.29298L18.707 3.4717C19.1137 3.8785 19.1137 4.53805 18.707 4.94484L17.6481 6.00372L16.0279 4.32019L17.0551 3.29298ZM14.5545 5.79359L16.1747 7.47712L8.92581 14.726L6.72328 15.2767L7.2739 13.0742L14.5545 5.79359ZM2.16665 7.33327C2.16665 6.75798 2.63302 6.2916 3.20831 6.2916H8.41665C8.99196 6.2916 9.45831 5.82524 9.45831 5.24994C9.45831 4.67465 8.99196 4.20827 8.41665 4.20827H3.20831C1.48243 4.20827 0.083313 5.60739 0.083313 7.33327V18.7916C0.083313 20.5175 1.48243 21.9166 3.20831 21.9166H14.6666C16.3926 21.9166 17.7916 20.5175 17.7916 18.7916V13.5832C17.7916 13.008 17.3253 12.5416 16.75 12.5416C16.1747 12.5416 15.7083 13.008 15.7083 13.5832V18.7916C15.7083 19.3669 15.242 19.8332 14.6666 19.8332H3.20831C2.63302 19.8332 2.16665 19.3669 2.16665 18.7916V7.33327Z" fill="black"/>
</svg>
