<svg width="60" height="60" viewBox="0 0 60 60" fill="none" xmlns="http://www.w3.org/2000/svg">
<path d="M30 23.4696C30.9941 23.4696 31.8 22.6637 31.8 21.6696C31.8 20.6755 30.9941 19.8696 30 19.8696V23.4696ZM18.6886 42.1308C19.576 42.5789 20.6586 42.2227 21.1068 41.3354C21.5549 40.4479 21.1988 39.3653 20.3114 38.9172L18.6886 42.1308ZM28.2 21.6696C28.2 22.6637 29.0059 23.4696 30 23.4696C30.9941 23.4696 31.8 22.6637 31.8 21.6696H28.2ZM31.8 13.2C31.8 12.2059 30.9941 11.4 30 11.4C29.0059 11.4 28.2 12.2059 28.2 13.2H31.8ZM29.9943 19.8696C29.0002 19.8728 28.1969 20.6813 28.2 21.6754C28.2031 22.6695 29.0117 23.4728 30.0058 23.4696L29.9943 19.8696ZM36.1745 24.268C37.135 24.5242 38.1214 23.9532 38.3777 22.9927C38.6338 22.0321 38.0628 21.0458 37.1023 20.7896L36.1745 24.268ZM16.9124 16.6359C16.4706 15.7454 15.3905 15.3817 14.4999 15.8236C13.6094 16.2655 13.2457 17.3456 13.6876 18.2361L16.9124 16.6359ZM17.1412 25.1961C17.5831 26.0866 18.6632 26.4504 19.5537 26.0083C20.4442 25.5665 20.8079 24.4864 20.366 23.5959L17.1412 25.1961ZM18.1762 47.9803C17.5026 48.7116 17.5493 49.8502 18.2804 50.5238C19.0115 51.1975 20.1503 51.1507 20.8238 50.4197L18.1762 47.9803ZM27.0039 43.7117C27.6775 42.9804 27.6307 41.8418 26.8997 41.1682C26.1684 40.4945 25.0299 40.5413 24.3562 41.2723L27.0039 43.7117ZM48.1243 20.772C48.7975 20.0406 48.7505 18.9019 48.0192 18.2286C47.2879 17.5552 46.1491 17.6022 45.4757 18.3336L48.1243 20.772ZM40.6277 23.5992C39.9545 24.3305 40.0015 25.4693 40.7328 26.1427C41.4641 26.8159 42.6029 26.7689 43.2763 26.0376L40.6277 23.5992ZM24.3562 41.2723C23.6826 42.0036 23.7293 43.1422 24.4603 43.8158C25.1916 44.4895 26.3302 44.4427 27.0039 43.7117L24.3562 41.2723ZM31.44 36.24L32.7639 37.4597L32.7655 37.4578L31.44 36.24ZM43.2763 26.0376C43.9498 25.3063 43.9027 24.1678 43.1715 23.4943C42.4402 22.8209 41.3011 22.8679 40.6277 23.5992L43.2763 26.0376ZM25.9752 40.7165C24.9946 40.5533 24.0675 41.2162 23.9044 42.1968C23.7413 43.1774 24.4042 44.1046 25.3848 44.2675L25.9752 40.7165ZM46.8 32.2584H48.6C48.6 32.2157 48.5986 32.1732 48.5955 32.1305L46.8 32.2584ZM42.7942 23.2275C41.9155 22.7624 40.8262 23.0977 40.3611 23.9763C39.8962 24.8549 40.2312 25.9442 41.1099 26.4094L42.7942 23.2275ZM25.1321 35.8001C25.7134 36.6062 26.8385 36.7886 27.6449 36.2071C28.4511 35.6258 28.6335 34.5007 28.0519 33.6943L25.1321 35.8001ZM30 28.0224L29.9979 26.2224H29.9856L30 28.0224ZM31.255 30.1814C32.0974 30.7092 33.2081 30.4541 33.7359 29.6114C34.2636 28.769 34.0085 27.6583 33.1659 27.1306L31.255 30.1814ZM30 19.8696C25.0747 19.8696 20.5306 21.1241 17.1609 23.2479C13.8146 25.357 11.4 28.4969 11.4 32.2584H15C15 30.1711 16.3463 28.0166 19.0804 26.2934C21.7911 24.585 25.6469 23.4696 30 23.4696V19.8696ZM11.4 32.2584C11.4 36.5626 14.5434 40.0375 18.6886 42.1308L20.3114 38.9172C16.7767 37.1323 15 34.6406 15 32.2584H11.4ZM31.8 21.6696V13.2H28.2V21.6696H31.8ZM30.0058 23.4696C32.0883 23.4629 34.1623 23.7313 36.1745 24.268L37.1023 20.7896C34.7837 20.1712 32.3938 19.8619 29.9943 19.8696L30.0058 23.4696ZM13.6876 18.2361L17.1412 25.1961L20.366 23.5959L16.9124 16.6359L13.6876 18.2361ZM20.8238 50.4197L27.0039 43.7117L24.3562 41.2723L18.1762 47.9803L20.8238 50.4197ZM45.4757 18.3336L40.6277 23.5992L43.2763 26.0376L48.1243 20.772L45.4757 18.3336ZM27.0039 43.7117L32.7639 37.4597L30.1162 35.0203L24.3562 41.2723L27.0039 43.7117ZM32.7655 37.4578L35.3695 34.6234L32.7199 32.1862L30.1145 35.0222L32.7655 37.4578ZM35.3695 34.6234L43.2763 26.0376L40.6277 23.5992L32.7199 32.1862L35.3695 34.6234ZM25.3848 44.2675C26.9105 44.5214 28.4547 44.6484 30.0012 44.6472L30 41.0472C28.6519 41.0482 27.3051 40.9375 25.9752 40.7165L25.3848 44.2675ZM30.0012 44.6472C34.9265 44.6472 39.4695 43.3927 42.8391 41.269C46.1854 39.1598 48.6 36.0199 48.6 32.2584H45C45 34.3457 43.6539 36.5002 40.9198 38.2234C38.209 39.9317 34.3531 41.0472 30 41.0472L30.0012 44.6472ZM48.5955 32.1305C48.3271 28.3608 46.1343 24.9957 42.7942 23.2275L41.1099 26.4094C43.3522 27.5964 44.8243 29.8555 45.0046 32.3863L48.5955 32.1305ZM28.0519 33.6943C27.5177 32.9534 27.4414 31.9759 27.8544 31.1611L24.6432 29.5337C23.6217 31.5494 23.8102 33.967 25.1321 35.8001L28.0519 33.6943ZM27.8544 31.1611C28.2675 30.3461 29.1007 29.8296 30.0144 29.8224L29.9856 26.2224C27.7258 26.2404 25.6649 27.5179 24.6432 29.5337L27.8544 31.1611ZM30.0022 29.8224C30.4452 29.8219 30.8794 29.9462 31.255 30.1814L33.1659 27.1306C32.2164 26.5358 31.1182 26.221 29.9979 26.2224L30.0022 29.8224Z" fill="black"/>
</svg>
