<svg width="125" height="21" viewBox="0 0 125 21" fill="none" xmlns="http://www.w3.org/2000/svg">
<path d="M7.45121 3.5504C8.77063 1.18347 9.43031 0 10.4167 0C11.403 0 12.0627 1.18346 13.3821 3.55039L13.7234 4.16274C14.0984 4.83534 14.2858 5.17166 14.5782 5.39355C14.8705 5.61545 15.2345 5.69781 15.9626 5.86255L16.6255 6.01253C19.1876 6.59225 20.4688 6.8821 20.7735 7.86222C21.0783 8.84229 20.205 9.86365 18.4582 11.9061L18.0064 12.4346C17.51 13.015 17.2618 13.3052 17.1501 13.6643C17.0385 14.0233 17.076 14.4105 17.151 15.185L17.2194 15.89C17.4834 18.6152 17.6155 19.9778 16.8176 20.5835C16.0196 21.1893 14.8201 20.637 12.4211 19.5325L11.8005 19.2467C11.1189 18.9328 10.778 18.7758 10.4167 18.7758C10.0553 18.7758 9.71448 18.9328 9.03281 19.2467L8.41219 19.5325C6.01321 20.637 4.81373 21.1893 4.01578 20.5835C3.21784 19.9778 3.34988 18.6152 3.61396 15.89L3.68227 15.185C3.75732 14.4105 3.79485 14.0233 3.68319 13.6643C3.57154 13.3052 3.32337 13.015 2.827 12.4346L2.37511 11.9061C0.628387 9.86365 -0.244977 8.84229 0.0598145 7.86222C0.364606 6.8821 1.64569 6.59225 4.20786 6.01253L4.87072 5.86255C5.5988 5.69781 5.96285 5.61545 6.25515 5.39355C6.54745 5.17166 6.73493 4.83535 7.10987 4.16274L7.45121 3.5504Z" fill="#FF6B00"/>
<path d="M33.2846 3.5504C34.604 1.18347 35.2637 0 36.25 0C37.2364 0 37.8961 1.18346 39.2155 3.55039L39.5568 4.16274C39.9318 4.83534 40.1192 5.17166 40.4116 5.39355C40.7039 5.61545 41.0679 5.69781 41.796 5.86255L42.4589 6.01253C45.021 6.59225 46.3021 6.8821 46.6069 7.86222C46.9117 8.84229 46.0384 9.86365 44.2916 11.9061L43.8397 12.4346C43.3434 13.015 43.0951 13.3052 42.9835 13.6643C42.8719 14.0233 42.9094 14.4105 42.9844 15.185L43.0527 15.89C43.3168 18.6152 43.4489 19.9778 42.651 20.5835C41.853 21.1893 40.6535 20.637 38.2545 19.5325L37.6339 19.2467C36.9522 18.9328 36.6114 18.7758 36.25 18.7758C35.8887 18.7758 35.5479 18.9328 34.8662 19.2467L34.2456 19.5325C31.8466 20.637 30.6471 21.1893 29.8492 20.5835C29.0512 19.9778 29.1833 18.6152 29.4473 15.89L29.5156 15.185C29.5907 14.4105 29.6282 14.0233 29.5166 13.6643C29.4049 13.3052 29.1567 13.015 28.6604 12.4346L28.2085 11.9061C26.4618 9.86365 25.5884 8.84229 25.8932 7.86222C26.198 6.8821 27.4791 6.59225 30.0412 6.01253L30.7041 5.86255C31.4322 5.69781 31.7962 5.61545 32.0885 5.39355C32.3808 5.17166 32.5683 4.83535 32.9432 4.16274L33.2846 3.5504Z" fill="#FF6B00"/>
<path d="M59.118 3.5504C60.4374 1.18347 61.0971 0 62.0834 0C63.0698 0 63.7295 1.18346 65.0488 3.55039L65.3902 4.16274C65.7652 4.83534 65.9526 5.17166 66.245 5.39355C66.5373 5.61545 66.9012 5.69781 67.6294 5.86255L68.2923 6.01253C70.8544 6.59225 72.1355 6.8821 72.4403 7.86222C72.7451 8.84229 71.8717 9.86365 70.125 11.9061L69.6731 12.4346C69.1768 13.015 68.9285 13.3052 68.8169 13.6643C68.7053 14.0233 68.7428 14.4105 68.8178 15.185L68.8861 15.89C69.1502 18.6152 69.2823 19.9778 68.4844 20.5835C67.6863 21.1893 66.4869 20.637 64.0879 19.5325L63.4673 19.2467C62.7856 18.9328 62.4448 18.7758 62.0834 18.7758C61.7221 18.7758 61.3812 18.9328 60.6996 19.2467L60.0789 19.5325C57.68 20.637 56.4805 21.1893 55.6825 20.5835C54.8846 19.9778 55.0166 18.6152 55.2807 15.89L55.349 15.185C55.4241 14.4105 55.4616 14.0233 55.3499 13.6643C55.2383 13.3052 54.9901 13.015 54.4938 12.4346L54.0419 11.9061C52.2951 9.86365 51.4218 8.84229 51.7266 7.86222C52.0314 6.8821 53.3124 6.59225 55.8746 6.01253L56.5375 5.86255C57.2656 5.69781 57.6296 5.61545 57.9219 5.39355C58.2142 5.17166 58.4017 4.83535 58.7766 4.16274L59.118 3.5504Z" fill="#FF6B00"/>
<path d="M84.9513 3.5504C86.2707 1.18347 86.9304 0 87.9168 0C88.9031 0 89.5628 1.18346 90.8822 3.55039L91.2236 4.16274C91.5986 4.83534 91.786 5.17166 92.0784 5.39355C92.3706 5.61545 92.7346 5.69781 93.4627 5.86255L94.1256 6.01253C96.6877 6.59225 97.9689 6.8821 98.2737 7.86222C98.5785 8.84229 97.7051 9.86365 95.9584 11.9061L95.5065 12.4346C95.0101 13.015 94.7619 13.3052 94.6502 13.6643C94.5387 14.0233 94.5762 14.4105 94.6512 15.185L94.7195 15.89C94.9836 18.6152 95.1156 19.9778 94.3177 20.5835C93.5197 21.1893 92.3202 20.637 89.9213 19.5325L89.3006 19.2467C88.619 18.9328 88.2781 18.7758 87.9168 18.7758C87.5554 18.7758 87.2146 18.9328 86.5329 19.2467L85.9123 19.5325C83.5133 20.637 82.3139 21.1893 81.5159 20.5835C80.718 19.9778 80.85 18.6152 81.1141 15.89L81.1824 15.185C81.2574 14.4105 81.295 14.0233 81.1833 13.6643C81.0717 13.3052 80.8235 13.015 80.3271 12.4346L79.8752 11.9061C78.1285 9.86365 77.2551 8.84229 77.5599 7.86222C77.8647 6.8821 79.1458 6.59225 81.708 6.01253L82.3708 5.86255C83.0989 5.69781 83.463 5.61545 83.7553 5.39355C84.0476 5.17166 84.2351 4.83535 84.61 4.16274L84.9513 3.5504Z" fill="#FF6B00"/>
<path d="M110.785 3.5504C112.104 1.18347 112.764 0 113.75 0C114.737 0 115.396 1.18346 116.716 3.55039L117.057 4.16274C117.432 4.83534 117.619 5.17166 117.912 5.39355C118.204 5.61545 118.568 5.69781 119.296 5.86255L119.959 6.01253C122.521 6.59225 123.802 6.8821 124.107 7.86222C124.412 8.84229 123.538 9.86365 121.792 11.9061L121.34 12.4346C120.843 13.015 120.595 13.3052 120.484 13.6643C120.372 14.0233 120.41 14.4105 120.485 15.185L120.553 15.89C120.817 18.6152 120.949 19.9778 120.151 20.5835C119.353 21.1893 118.154 20.637 115.755 19.5325L115.134 19.2467C114.452 18.9328 114.112 18.7758 113.75 18.7758C113.389 18.7758 113.048 18.9328 112.366 19.2467L111.746 19.5325C109.347 20.637 108.147 21.1893 107.349 20.5835C106.551 19.9778 106.683 18.6152 106.947 15.89L107.016 15.185C107.091 14.4105 107.128 14.0233 107.017 13.6643C106.905 13.3052 106.657 13.015 106.16 12.4346L105.709 11.9061C103.962 9.86365 103.089 8.84229 103.393 7.86222C103.698 6.8821 104.979 6.59225 107.541 6.01253L108.204 5.86255C108.932 5.69781 109.296 5.61545 109.589 5.39355C109.881 5.17166 110.068 4.83535 110.443 4.16274L110.785 3.5504Z" fill="#FF6B00"/>
</svg>
