<svg width="59" height="56" viewBox="0 0 59 56" fill="none" xmlns="http://www.w3.org/2000/svg">
<path d="M53.1 11.7895H44.25V5.89474C44.25 2.62316 41.6245 0 38.35 0H20.65C17.3755 0 14.75 2.62316 14.75 5.89474V11.7895H5.9C2.6255 11.7895 0 14.4126 0 17.6842V50.1053C0 53.3768 2.6255 56 5.9 56H53.1C56.3745 56 59 53.3768 59 50.1053V17.6842C59 14.4126 56.3745 11.7895 53.1 11.7895ZM20.65 5.89474H38.35V11.7895H20.65V5.89474ZM53.1 50.1053H5.9V44.2105H53.1V50.1053ZM53.1 35.3684H5.9V17.6842H14.75V23.5789H20.65V17.6842H38.35V23.5789H44.25V17.6842H53.1V35.3684Z" fill="black"/>
</svg>
