<svg width="23" height="25" viewBox="0 0 23 25" fill="none" xmlns="http://www.w3.org/2000/svg">
<path fill-rule="evenodd" clip-rule="evenodd" d="M10.3723 0.159169C10.8674 -0.0265283 11.4068 -0.0497402 11.9131 0.0895325L12.1277 0.159169L20.8777 3.44042C21.7886 3.78194 22.4124 4.61728 22.4915 5.57441L22.5 5.78124V12.4846C22.5 16.6206 20.232 20.4118 16.6138 22.3737L16.2811 22.547L12.0885 24.6433C11.6193 24.8779 11.0763 24.904 10.5907 24.7215L10.4115 24.6433L6.21885 22.547C2.51962 20.6973 0.142834 16.9733 0.00622243 12.8596L0 12.4846V5.78124C0 4.80862 0.563119 3.93119 1.43152 3.52102L1.62219 3.44042L10.3723 0.159169ZM15.5411 8.20138L9.7935 13.949L7.58384 11.7393C7.09568 11.2511 6.30423 11.2511 5.81606 11.7393C5.32791 12.2274 5.32791 13.0189 5.81606 13.507L8.82125 16.5123C9.35825 17.0493 10.2289 17.0493 10.7659 16.5123L17.3089 9.96913C17.7971 9.48098 17.7971 8.68953 17.3089 8.20138C16.8207 7.71322 16.0294 7.71322 15.5411 8.20138Z" fill="#FF6B00"/>
</svg>
