<svg width="56" height="80" viewBox="0 0 56 80" fill="none" xmlns="http://www.w3.org/2000/svg">
<path d="M24 16H32V8H24V16ZM28 40C22.9333 40 18.1 38.95 13.5 36.85C8.9 34.75 4.4 32.4 0 29.8V24C0 21.8 0.783333 19.9167 2.35 18.35C3.91667 16.7833 5.8 16 8 16H16V4C16 2.86667 16.3833 1.91667 17.15 1.15C17.9167 0.383333 18.8667 0 20 0H36C37.1333 0 38.0833 0.383333 38.85 1.15C39.6167 1.91667 40 2.86667 40 4V16H48C50.2 16 52.0833 16.7833 53.65 18.35C55.2167 19.9167 56 21.8 56 24V29.8C51.6 32.4 47.1 34.75 42.5 36.85C37.9 38.95 33.0667 40 28 40ZM8 76C5.8 76 3.91667 75.2167 2.35 73.65C0.783333 72.0833 0 70.2 0 68V38.8C3.73333 41.0667 7.58333 43 11.55 44.6C15.5167 46.2 19.6667 47.2667 24 47.8V48C24 49.1333 24.3833 50.0833 25.15 50.85C25.9167 51.6167 26.8667 52 28 52C29.1333 52 30.0833 51.6167 30.85 50.85C31.6167 50.0833 32 49.1333 32 48V47.8C36.3333 47.2667 40.4833 46.2 44.45 44.6C48.4167 43 52.2667 41.0667 56 38.8V68C56 70.2 55.2167 72.0833 53.65 73.65C52.0833 75.2167 50.2 76 48 76C48 77.1333 47.6167 78.0833 46.85 78.85C46.0833 79.6167 45.1333 80 44 80C42.9333 80 42.1833 79.5167 41.75 78.55C41.3167 77.5833 40.7333 76.7333 40 76H16C16 77.1333 15.6167 78.0833 14.85 78.85C14.0833 79.6167 13.1333 80 12 80C10.9333 80 10.1833 79.5167 9.75 78.55C9.31667 77.5833 8.73333 76.7333 8 76Z" fill="black"/>
</svg>
